<?xml version="1.0" encoding="UTF-8" standalone="no"?>
<svg
   xmlns:dc="http://purl.org/dc/elements/1.1/"
   xmlns:cc="http://creativecommons.org/ns#"
   xmlns:rdf="http://www.w3.org/1999/02/22-rdf-syntax-ns#"
   xmlns:svg="http://www.w3.org/2000/svg"
   xmlns="http://www.w3.org/2000/svg"
   xmlns:sodipodi="http://sodipodi.sourceforge.net/DTD/sodipodi-0.dtd"
   xmlns:inkscape="http://www.inkscape.org/namespaces/inkscape"
   version="1.1"
   id="svg2"
   xml:space="preserve"
   width="582.05334"
   height="393.06668"
   viewBox="0 0 582.05334 393.06668"
   sodipodi:docname="Dada2Innov_logo.svg"
   inkscape:version="0.92.5 (2060ec1f9f, 2020-04-08)"><metadata
     id="metadata8"><rdf:RDF><cc:Work
         rdf:about=""><dc:format>image/svg+xml</dc:format><dc:type
           rdf:resource="http://purl.org/dc/dcmitype/StillImage" /><dc:title></dc:title></cc:Work></rdf:RDF></metadata><defs
     id="defs6"><clipPath
       clipPathUnits="userSpaceOnUse"
       id="clipPath226"><path
         d="m 1741.86,1392.94 c -0.98,26.86 -4.36,52.53 -13.24,75.09 -4.48,11.2 -10.47,21.7 -18.98,29.84 -1.96,1.76 -4.02,3.38 -6.1,4.96 l 1.14,-0.07 c 0,0 -0.01,2.41 -0.03,6.63 0.04,2.09 -0.09,4.67 -0.37,7.63 -0.13,1.47 -0.26,3.04 -0.39,4.69 -0.28,1.67 -0.56,3.41 -0.85,5.24 -0.16,0.9 -0.31,1.83 -0.47,2.77 -0.24,0.95 -0.5,1.91 -0.74,2.89 -0.59,1.95 -0.9,3.97 -1.76,6.01 -1.44,4.09 -3.32,8.36 -6.01,12.47 -1.38,2.04 -2.75,4.11 -4.59,5.96 -1.62,1.98 -3.66,3.67 -5.69,5.35 -1.19,0.89 -2.44,1.73 -3.71,2.53 l 0.32,1.26 c 0.65,2.72 1.52,6.68 2.46,11.73 1.89,10.11 4.04,24.6 4.53,42.16 0.24,8.78 -0.02,18.33 -1.23,28.39 -1.22,10.05 -3.38,20.66 -7.34,31.23 -3.98,10.53 -9.94,21.05 -18.47,29.97 -8.46,8.94 -19.54,15.97 -31.59,20.12 -3.02,1.07 -6.24,1.83 -9.33,2.73 -3.1,0.79 -6,1.14 -9.01,1.73 -2.98,0.5 -5.97,1 -8.93,1.5 -2.91,0.39 -5.7,1.16 -8.53,1.79 -1.53,0.37 -3.03,0.83 -4.54,1.26 2.42,0.74 5.38,1.78 8.58,3.8 4.57,2.76 9.65,7.58 12.74,14.44 1.57,3.4 2.6,7.21 3.29,11.24 0.65,4.04 0.64,8.27 0.45,12.63 -0.26,4.37 -0.93,8.82 -1.81,13.39 -0.97,4.53 -2.3,9.12 -3.83,13.77 -3.11,9.25 -7.05,18.76 -11.93,28.15 -9.62,18.87 -22.17,37.67 -35.94,55.55 -13.87,17.81 -29.03,34.69 -44.45,49.52 -7.69,7.44 -15.57,14.25 -23.34,20.47 -7.85,6.24 -15.4,11.76 -24.28,15.94 l -1.89,0.81 -1.57,0.54 c -1.46,0.52 -2.38,0.6 -3.56,0.91 -2.26,0.47 -4.35,1.11 -6.66,1.18 -2.25,0.17 -4.37,0.45 -6.6,0.18 -1.08,-0.08 -2.15,-0.16 -3.19,-0.24 -1.06,-0.18 -2.1,-0.47 -3.11,-0.7 -4.05,-0.9 -7.53,-2.95 -10.13,-5.15 -2.04,-1.93 -3.63,-3.9 -4.77,-5.84 -3.52,9.04 -8.07,18.04 -13.99,25.9 -6.13,8.2 -13.25,15.59 -21,22.19 -7.87,6.49 -16.33,12.18 -25.17,17.13 -8.9,4.88 -18.21,8.89 -27.69,12.32 -19.07,6.6 -39.02,10.61 -59.24,10.57 -10.1,-0.02 -20.28,-1.01 -30.22,-3.63 -9.89,-2.6 -19.71,-7.05 -27.59,-14.08 -7.93,-7 -13.1,-16.37 -14.9,-26.06 -1.84,-10.1 -0.75,-17.91 0.56,-26.59 1.48,-8.43 3.92,-17.19 9.81,-24.85 1.54,-2.03 3.33,-3.92 5.33,-5.62 l -0.62,-0.55 c -1.08,-1.1 -2.42,-2.29 -3.65,-3.76 -1.32,-1.41 -2.6,-3.05 -3.9,-4.85 -1.33,-1.78 -2.45,-3.83 -3.62,-5.96 -1,-2.19 -2.2,-4.45 -2.82,-6.94 -0.87,-2.42 -1.3,-4.99 -1.69,-7.58 -0.52,-2.59 -0.37,-5.2 -0.63,-7.83 0.02,-2.59 0.39,-5.14 0.82,-7.59 0.77,-2.33 1.73,-4.54 2.75,-6.55 1.03,-2 2.47,-3.65 3.66,-5.2 0.93,-1.23 1.92,-2.23 2.91,-3.13 -0.77,-1.03 -1.47,-2.06 -2.1,-3.11 -6.47,-10.3 -9.95,-20.94 -12.7,-31.57 -5.04,-21.31 -6.29,-42.7 -5.21,-63.69 0.55,-10.49 1.87,-20.89 4.2,-31.08 2.28,-10.18 5.52,-20.21 10.69,-29.74 2.54,-4.76 5.76,-9.4 10,-13.55 1.13,-1.01 2.09,-2.1 3.37,-3.01 l 3.86,-2.68 c 1.41,-0.79 2.95,-1.45 4.42,-2.14 l 0.37,-0.16 c -2.04,-3.54 -4.82,-8.35 -7.89,-14.61 -3.44,-6.91 -7.49,-15.4 -11.3,-25.48 -3.85,-10.05 -7.71,-21.64 -10.09,-34.83 -1.2,-6.59 -2.05,-13.59 -2.04,-21 -0.01,-7.32 1.1,-15.4 3.86,-23.02 4.81,-13.25 6.78,-28.27 9.57,-44.22 1.34,-7.97 2.78,-16.19 4.7,-24.55 1.88,-8.37 4.37,-16.91 8.1,-25.33 3.64,-8.41 8.67,-16.74 15.41,-24.1 2,-2.15 4.19,-4.16 6.47,-6.08 -3.66,-2.39 -8.12,-5.97 -12.43,-11.22 -5.47,-6.6 -10.53,-15.72 -14.18,-26.77 -0.82,-2.77 -1.96,-5.61 -2.58,-8.61 -0.64,-3 -1.32,-6.08 -2,-9.26 -0.72,-3.17 -0.87,-6.45 -1.32,-9.81 -0.37,-3.37 -0.85,-6.82 -0.85,-10.32 -0.11,-3.52 -0.22,-7.11 -0.34,-10.78 -0.13,-3.66 0.22,-7.34 0.32,-11.13 0.2,-3.77 0.23,-7.64 0.7,-11.49 0.46,-3.87 0.93,-7.79 1.41,-11.76 0.49,-3.91 0.98,-7.87 1.48,-11.87 0.52,-4.01 1.06,-8.05 1.6,-12.14 0.94,-8.2 1.82,-16.28 2.57,-24.69 1.45,-16.82 1.67,-34.23 0.97,-51.75 -0.8,-17.45 -3.06,-35.34 -8.56,-51.56 -0.71,-1.97 -1.4,-4 -2.2,-5.78 l -0.58,-1.31 -0.41,-0.87 c -0.74,-1.27 -1.3,-2.31 -1.92,-3.46 -2.35,-4.48 -4.38,-8.98 -6.18,-13.61 -3.55,-9.26 -6.17,-18.96 -6.72,-29.19 -0.25,-5.12 0.04,-10.37 1.25,-15.61 1.26,-5.21 3.51,-10.37 6.76,-14.92 3.24,-4.57 7.45,-8.42 12.01,-11.44 l 3.49,-2.13 3.61,-1.78 c 1.19,-0.62 2.42,-1.09 3.65,-1.55 l 1.84,-0.7 0.51,-0.19 c -1.32,-2.42 -2.89,-5.39 -4.64,-8.98 -2.5,-5.27 -5.54,-11.68 -8.31,-19.32 -2.76,-7.63 -5.76,-16.36 -7.63,-26.28 -1.83,-9.88 -3.36,-20.98 -1.46,-33.06 0.95,-6 2.77,-12.268 6.08,-18.319 3.36,-5.973 8.28,-11.762 14.68,-15.891 1.93,-1.289 3.98,-2.39 6.08,-3.41 -1.68,-1.949 -3.4,-4.039 -5.21,-6.449 -5.19,-6.973 -10.81,-16.019 -14.96,-27.281 -4.15,-11.231 -6.61,-24.789 -5.33,-39.25 0.21,-1.801 0.41,-3.621 0.62,-5.449 l 0.15,-1.379 0.08,-0.692 0.02,-0.179 0.08,-0.411 0.07,-0.32 0.52,-2.539 c 0.74,-3.422 1.31,-6.793 2.55,-10.68 0.56,-1.89 1.12,-3.793 1.68,-5.711 0.73,-1.832 1.45,-3.691 2.19,-5.558 1.3,-3.774 3.46,-7.391 5.36,-11.113 0.99,-1.848 2.36,-3.571 3.54,-5.379 1.21,-1.789 2.42,-3.59 4.01,-5.211 1.5,-1.66 2.97,-3.36 4.55,-4.989 1.77,-1.492 3.55,-2.98 5.33,-4.468 7.51,-5.543 16.44,-10.063 26.15,-11.973 9.6,-1.98 19.61,-2.508 29.32,-1.391 2.43,0.262 4.89,0.454 7.33,0.782 l 7.17,1.398 c 4.86,0.793 9.51,2.192 14.19,3.512 4.75,1.191 9.28,2.91 13.85,4.539 2.34,0.859 4.46,1.551 6.99,2.543 l 6.56,2.777 6.57,2.781 6.64,3.25 c 2.19,1.102 4.44,2.129 6.59,3.309 l 6.35,3.652 c 4.31,2.309 8.19,5.297 12.26,7.95 3.82,3.007 7.75,5.89 11.24,9.191 7.18,6.406 13.41,13.477 19.49,20.18 6.07,6.707 12.27,12.949 19.47,18.008 7.17,5.031 14.83,9.429 23,12.691 16.29,6.801 32.88,12.219 48.25,18.078 15.42,5.813 29.86,11.992 42.21,19.34 12.38,7.301 22.44,15.891 29.73,24.609 3.91,4.192 6.52,8.793 9.29,12.793 2.32,4.239 4.36,8.199 6.03,11.799 1.39,3.72 2.63,7.03 3.72,9.92 0.39,1.21 0.68,2.33 0.96,3.41 l 0.5,0.19 c 15.86,6.12 30.62,15.52 43.24,26.93 12.65,11.43 22.85,25.04 31.11,39.31 8.13,14.34 14.51,29.38 19.52,44.59 10.06,30.42 15.25,61.42 22.52,90.62 7.8,29.95 12.74,60.01 16.32,89.05 3.53,29.09 5.05,57.43 4.13,84.34 z"
         id="path224" /></clipPath><clipPath
       clipPathUnits="userSpaceOnUse"
       id="clipPath634"><path
         d="m 3587.02,1392.94 c -0.96,26.86 -4.35,52.53 -13.22,75.09 -4.49,11.2 -10.49,21.7 -18.99,29.84 -1.97,1.76 -4.02,3.38 -6.1,4.96 l 1.13,-0.07 c 0,0 0,2.41 -0.02,6.63 0.04,2.09 -0.09,4.67 -0.38,7.63 -0.11,1.47 -0.25,3.04 -0.39,4.69 -0.26,1.67 -0.55,3.41 -0.85,5.24 -0.15,0.9 -0.3,1.83 -0.45,2.77 -0.26,0.95 -0.5,1.91 -0.76,2.89 -0.57,1.95 -0.9,3.97 -1.75,6.01 -1.44,4.09 -3.32,8.36 -6,12.47 -1.39,2.04 -2.76,4.11 -4.59,5.96 -1.62,1.98 -3.67,3.67 -5.69,5.35 -1.2,0.89 -2.45,1.73 -3.71,2.53 l 0.31,1.26 c 0.64,2.72 1.51,6.68 2.46,11.73 1.88,10.11 4.04,24.6 4.53,42.16 0.23,8.78 -0.02,18.33 -1.23,28.39 -1.22,10.05 -3.38,20.66 -7.33,31.23 -4,10.53 -9.95,21.05 -18.48,29.97 -8.47,8.94 -19.54,15.97 -31.58,20.12 -3.03,1.07 -6.25,1.83 -9.35,2.73 -3.09,0.79 -5.99,1.14 -8.99,1.73 -2.99,0.5 -5.97,1 -8.94,1.5 -2.92,0.39 -5.7,1.16 -8.52,1.79 -1.55,0.37 -3.03,0.83 -4.54,1.26 2.41,0.74 5.37,1.78 8.57,3.8 4.58,2.76 9.65,7.58 12.73,14.44 1.59,3.4 2.61,7.21 3.3,11.24 0.66,4.04 0.65,8.27 0.45,12.63 -0.25,4.37 -0.93,8.82 -1.81,13.39 -0.97,4.53 -2.31,9.12 -3.83,13.77 -3.11,9.25 -7.05,18.76 -11.92,28.15 -9.63,18.87 -22.17,37.67 -35.95,55.55 -13.88,17.81 -29.04,34.69 -44.45,49.52 -7.69,7.44 -15.56,14.25 -23.34,20.47 -7.86,6.24 -15.41,11.76 -24.28,15.94 l -1.9,0.81 -1.57,0.54 c -1.44,0.52 -2.36,0.6 -3.55,0.91 -2.25,0.47 -4.35,1.11 -6.65,1.18 -2.26,0.17 -4.39,0.45 -6.61,0.18 -1.08,-0.08 -2.14,-0.16 -3.2,-0.24 -1.05,-0.18 -2.09,-0.47 -3.09,-0.7 -4.07,-0.9 -7.54,-2.95 -10.14,-5.15 -2.04,-1.93 -3.63,-3.9 -4.78,-5.84 -3.5,9.04 -8.06,18.04 -13.98,25.9 -6.13,8.2 -13.25,15.59 -21.01,22.19 -7.86,6.49 -16.32,12.18 -25.16,17.13 -8.89,4.88 -18.22,8.89 -27.7,12.32 -19.05,6.6 -39.01,10.61 -59.24,10.57 -10.09,-0.02 -20.26,-1.01 -30.21,-3.63 -9.89,-2.6 -19.72,-7.05 -27.58,-14.08 -7.94,-7 -13.1,-16.37 -14.9,-26.06 -1.86,-10.1 -0.75,-17.91 0.55,-26.59 1.48,-8.43 3.93,-17.19 9.81,-24.85 1.53,-2.03 3.34,-3.92 5.32,-5.62 l -0.61,-0.55 c -1.08,-1.1 -2.43,-2.29 -3.65,-3.76 -1.31,-1.41 -2.59,-3.05 -3.9,-4.85 -1.33,-1.78 -2.45,-3.83 -3.63,-5.96 -0.99,-2.19 -2.19,-4.45 -2.81,-6.94 -0.87,-2.42 -1.3,-4.99 -1.69,-7.58 -0.51,-2.59 -0.38,-5.2 -0.63,-7.83 0.03,-2.59 0.4,-5.14 0.82,-7.59 0.77,-2.33 1.74,-4.54 2.75,-6.55 1.03,-2 2.46,-3.65 3.66,-5.2 0.92,-1.23 1.92,-2.23 2.9,-3.13 -0.77,-1.03 -1.46,-2.06 -2.09,-3.11 -6.47,-10.3 -9.95,-20.94 -12.69,-31.57 -5.05,-21.31 -6.31,-42.7 -5.22,-63.69 0.55,-10.49 1.87,-20.89 4.19,-31.08 2.3,-10.18 5.53,-20.21 10.7,-29.74 2.55,-4.76 5.76,-9.4 10.01,-13.55 1.12,-1.01 2.08,-2.1 3.37,-3.01 l 3.85,-2.68 c 1.41,-0.79 2.94,-1.45 4.43,-2.14 l 0.37,-0.16 c -2.04,-3.54 -4.83,-8.35 -7.9,-14.61 -3.45,-6.91 -7.49,-15.4 -11.29,-25.48 -3.86,-10.05 -7.72,-21.64 -10.11,-34.83 -1.18,-6.59 -2.03,-13.59 -2.03,-21 0,-7.32 1.09,-15.4 3.87,-23.02 4.8,-13.25 6.78,-28.27 9.57,-44.22 1.33,-7.97 2.77,-16.19 4.69,-24.55 1.88,-8.37 4.37,-16.91 8.09,-25.33 3.64,-8.41 8.67,-16.74 15.42,-24.1 1.99,-2.15 4.18,-4.16 6.47,-6.08 -3.67,-2.39 -8.12,-5.97 -12.44,-11.22 -5.46,-6.6 -10.52,-15.72 -14.18,-26.77 -0.81,-2.77 -1.95,-5.61 -2.57,-8.61 -0.65,-3 -1.31,-6.08 -2.01,-9.26 -0.72,-3.17 -0.85,-6.45 -1.3,-9.81 -0.38,-3.37 -0.86,-6.82 -0.86,-10.32 -0.11,-3.52 -0.23,-7.11 -0.34,-10.78 -0.12,-3.66 0.22,-7.34 0.32,-11.13 0.19,-3.77 0.22,-7.64 0.7,-11.49 0.47,-3.87 0.94,-7.79 1.41,-11.76 0.48,-3.91 0.98,-7.87 1.48,-11.87 0.53,-4.01 1.06,-8.05 1.59,-12.14 0.96,-8.2 1.83,-16.28 2.58,-24.69 1.46,-16.82 1.67,-34.23 0.98,-51.75 -0.8,-17.45 -3.08,-35.34 -8.58,-51.56 -0.69,-1.97 -1.38,-4 -2.18,-5.78 l -0.59,-1.31 -0.41,-0.87 c -0.74,-1.27 -1.31,-2.31 -1.91,-3.46 -2.36,-4.48 -4.39,-8.98 -6.2,-13.61 -3.53,-9.26 -6.17,-18.96 -6.71,-29.19 -0.26,-5.12 0.04,-10.37 1.25,-15.61 1.27,-5.21 3.5,-10.37 6.76,-14.92 3.24,-4.57 7.44,-8.42 12.01,-11.44 l 3.49,-2.13 3.6,-1.78 c 1.21,-0.62 2.43,-1.09 3.66,-1.55 l 1.83,-0.7 0.52,-0.19 c -1.32,-2.42 -2.89,-5.39 -4.65,-8.98 -2.49,-5.27 -5.54,-11.68 -8.31,-19.32 -2.75,-7.63 -5.74,-16.36 -7.63,-26.28 -1.81,-9.88 -3.35,-20.98 -1.45,-33.06 0.95,-6 2.77,-12.268 6.08,-18.319 3.35,-5.973 8.27,-11.762 14.67,-15.891 1.94,-1.289 3.99,-2.39 6.09,-3.41 -1.67,-1.949 -3.4,-4.039 -5.21,-6.449 -5.19,-6.973 -10.81,-16.019 -14.96,-27.281 -4.14,-11.231 -6.6,-24.789 -5.32,-39.25 0.19,-1.801 0.4,-3.621 0.6,-5.449 l 0.16,-1.379 0.08,-0.692 0.02,-0.179 0.07,-0.411 0.07,-0.32 0.53,-2.539 c 0.73,-3.422 1.31,-6.793 2.56,-10.68 0.55,-1.89 1.11,-3.793 1.67,-5.711 0.72,-1.832 1.45,-3.691 2.19,-5.558 1.3,-3.774 3.45,-7.391 5.36,-11.113 0.98,-1.848 2.35,-3.571 3.53,-5.379 1.21,-1.789 2.42,-3.59 4.02,-5.211 1.5,-1.66 2.98,-3.36 4.55,-4.989 1.76,-1.492 3.55,-2.98 5.34,-4.468 7.51,-5.543 16.43,-10.063 26.13,-11.973 9.61,-1.98 19.62,-2.508 29.34,-1.391 2.43,0.262 4.88,0.454 7.31,0.782 l 7.19,1.398 c 4.84,0.793 9.49,2.192 14.18,3.512 4.76,1.191 9.28,2.91 13.86,4.539 2.33,0.859 4.46,1.551 6.98,2.543 l 6.56,2.777 6.57,2.781 6.63,3.25 c 2.2,1.102 4.46,2.129 6.6,3.309 l 6.34,3.652 c 4.31,2.309 8.2,5.297 12.28,7.95 3.82,3.007 7.74,5.89 11.23,9.191 7.18,6.406 13.41,13.477 19.48,20.18 6.08,6.707 12.28,12.949 19.48,18.008 7.17,5.031 14.84,9.429 22.99,12.691 16.29,6.801 32.88,12.219 48.26,18.078 15.42,5.813 29.86,11.992 42.21,19.34 12.38,7.301 22.44,15.891 29.73,24.609 3.91,4.192 6.51,8.793 9.3,12.793 2.31,4.239 4.34,8.199 6.02,11.799 1.39,3.72 2.63,7.03 3.71,9.92 0.4,1.21 0.69,2.33 0.97,3.41 l 0.5,0.19 c 15.86,6.12 30.61,15.52 43.24,26.93 12.65,11.43 22.86,25.04 31.11,39.31 8.14,14.34 14.5,29.38 19.51,44.59 10.06,30.42 15.26,61.42 22.53,90.62 7.81,29.95 12.74,60.01 16.32,89.05 3.54,29.09 5.05,57.43 4.12,84.34 z"
         id="path632" /></clipPath></defs><sodipodi:namedview
     pagecolor="#ffffff"
     bordercolor="#666666"
     borderopacity="1"
     objecttolerance="10"
     gridtolerance="10"
     guidetolerance="10"
     inkscape:pageopacity="0"
     inkscape:pageshadow="2"
     inkscape:window-width="1848"
     inkscape:window-height="1016"
     id="namedview4"
     showgrid="false"
     inkscape:zoom="0.60040703"
     inkscape:cx="291.02667"
     inkscape:cy="196.53334"
     inkscape:window-x="72"
     inkscape:window-y="27"
     inkscape:window-maximized="1"
     inkscape:current-layer="g10" /><g
     id="g10"
     inkscape:groupmode="layer"
     inkscape:label="ink_ext_XXXXXX"
     transform="matrix(1.3333333,0,0,-1.3333333,0,393.06667)"><g
       id="g1022"
       transform="translate(-86.134084,-13.85)"><path
         d="m 245.47454,163.0279 c 0.096,2.686 0.435,5.253 1.322,7.509 0.448,1.12 1.048,2.17 1.899,2.984 0.197,0.176 0.402,0.338 0.61,0.496 l -0.114,-0.007 c 0,0 0.001,0.241 0.004,0.663 -0.005,0.209 0.008,0.467 0.036,0.763 0.012,0.147 0.025,0.304 0.039,0.469 0.027,0.167 0.055,0.341 0.086,0.524 0.014,0.09 0.03,0.183 0.046,0.277 0.024,0.095 0.049,0.191 0.075,0.289 0.057,0.195 0.089,0.397 0.176,0.601 0.142,0.409 0.331,0.836 0.599,1.247 0.139,0.204 0.276,0.411 0.459,0.596 0.162,0.198 0.366,0.367 0.569,0.535 0.121,0.089 0.245,0.173 0.372,0.253 l -0.032,0.126 c -0.065,0.272 -0.152,0.668 -0.247,1.173 -0.187,1.011 -0.403,2.46 -0.453,4.216 -0.022,0.878 0.002,1.833 0.123,2.839 0.123,1.005 0.339,2.066 0.735,3.123 0.398,1.053 0.994,2.105 1.847,2.997 0.846,0.894 1.954,1.597 3.158,2.012 0.302,0.107 0.624,0.183 0.935,0.273 0.309,0.079 0.6,0.114 0.899,0.173 0.299,0.05 0.597,0.1 0.894,0.15 0.292,0.039 0.569,0.116 0.852,0.179 0.154,0.037 0.303,0.083 0.455,0.126 -0.242,0.074 -0.539,0.178 -0.859,0.38 -0.457,0.276 -0.964,0.758 -1.273,1.444 -0.158,0.34 -0.26,0.721 -0.329,1.124 -0.066,0.404 -0.065,0.827 -0.045,1.263 0.025,0.437 0.092,0.882 0.181,1.339 0.096,0.453 0.23,0.912 0.382,1.377 0.312,0.925 0.705,1.876 1.194,2.815 0.961,1.887 2.216,3.767 3.594,5.555 1.387,1.781 2.904,3.469 4.445,4.952 0.768,0.744 1.556,1.425 2.334,2.047 0.786,0.624 1.541,1.176 2.428,1.594 l 0.189,0.081 0.157,0.054 c 0.145,0.052 0.237,0.06 0.355,0.091 0.226,0.047 0.435,0.111 0.666,0.118 0.226,0.017 0.438,0.045 0.661,0.018 0.108,-0.008 0.214,-0.016 0.319,-0.024 0.105,-0.018 0.21,-0.047 0.311,-0.07 0.405,-0.09 0.752,-0.295 1.012,-0.515 0.205,-0.193 0.364,-0.39 0.478,-0.584 0.351,0.904 0.807,1.804 1.398,2.59 0.613,0.82 1.325,1.559 2.101,2.219 0.787,0.649 1.633,1.218 2.517,1.713 0.889,0.488 1.821,0.889 2.769,1.232 1.906,0.66 3.901,1.061 5.925,1.057 1.008,-0.002 2.026,-0.101 3.02,-0.363 0.99,-0.26 1.972,-0.705 2.759,-1.408 0.794,-0.7 1.311,-1.637 1.49,-2.606 0.186,-1.01 0.075,-1.791 -0.055,-2.659 -0.149,-0.843 -0.393,-1.719 -0.982,-2.485 -0.152,-0.203 -0.333,-0.392 -0.532,-0.562 l 0.062,-0.055 c 0.108,-0.11 0.243,-0.229 0.365,-0.376 0.131,-0.141 0.259,-0.305 0.39,-0.485 0.133,-0.178 0.244,-0.383 0.363,-0.596 0.099,-0.219 0.219,-0.445 0.281,-0.694 0.087,-0.242 0.13,-0.499 0.169,-0.758 0.052,-0.259 0.037,-0.52 0.062,-0.783 -0.002,-0.259 -0.039,-0.514 -0.082,-0.759 -0.076,-0.233 -0.173,-0.454 -0.274,-0.655 -0.104,-0.2 -0.247,-0.365 -0.366,-0.52 -0.093,-0.123 -0.193,-0.223 -0.291,-0.313 0.077,-0.103 0.146,-0.206 0.21,-0.311 0.646,-1.03 0.995,-2.094 1.269,-3.157 0.505,-2.131 0.63,-4.27 0.523,-6.369 -0.056,-1.049 -0.189,-2.089 -0.42,-3.108 -0.23,-1.018 -0.553,-2.021 -1.07,-2.974 -0.255,-0.476 -0.577,-0.94 -1.001,-1.355 -0.113,-0.101 -0.209,-0.21 -0.337,-0.301 l -0.385,-0.268 c -0.141,-0.079 -0.295,-0.145 -0.443,-0.214 l -0.037,-0.016 c 0.204,-0.354 0.483,-0.835 0.79,-1.461 0.344,-0.691 0.749,-1.54 1.129,-2.548 0.386,-1.005 0.772,-2.164 1.01,-3.483 0.119,-0.659 0.204,-1.359 0.203,-2.1 10e-4,-0.732 -0.109,-1.54 -0.386,-2.302 -0.48,-1.325 -0.677,-2.827 -0.957,-4.422 -0.134,-0.797 -0.277,-1.619 -0.469,-2.455 -0.189,-0.837 -0.437,-1.691 -0.809,-2.533 -0.365,-0.841 -0.868,-1.674 -1.542,-2.41 -0.2,-0.215 -0.419,-0.416 -0.648,-0.608 0.367,-0.239 0.813,-0.597 1.245,-1.122 0.546,-0.66 1.052,-1.572 1.418,-2.677 0.081,-0.277 0.195,-0.561 0.256,-0.861 0.066,-0.3 0.132,-0.608 0.201,-0.926 0.072,-0.317 0.087,-0.645 0.131,-0.981 0.038,-0.337 0.085,-0.682 0.085,-1.032 0.012,-0.352 0.023,-0.711 0.035,-1.078 0.012,-0.366 -0.023,-0.734 -0.032,-1.113 -0.02,-0.377 -0.023,-0.764 -0.071,-1.149 -0.046,-0.387 -0.093,-0.779 -0.141,-1.176 -0.047,-0.391 -0.097,-0.787 -0.147,-1.187 -0.053,-0.401 -0.106,-0.805 -0.16,-1.214 -0.095,-0.82 -0.183,-1.628 -0.257,-2.469 -0.146,-1.682 -0.167,-3.423 -0.098,-5.175 0.08,-1.745 0.307,-3.534 0.857,-5.156 0.07,-0.197 0.139,-0.4 0.219,-0.578 l 0.058,-0.131 0.041,-0.087 c 0.075,-0.127 0.132,-0.231 0.193,-0.346 0.235,-0.448 0.438,-0.898 0.618,-1.361 0.354,-0.926 0.617,-1.896 0.673,-2.919 0.025,-0.512 -0.005,-1.037 -0.126,-1.561 -0.126,-0.521 -0.35,-1.037 -0.676,-1.492 -0.324,-0.457 -0.744,-0.842 -1.201,-1.144 l -0.349,-0.213 -0.36,-0.178 c -0.121,-0.062 -0.243,-0.109 -0.366,-0.155 l -0.184,-0.07 -0.052,-0.019 c 0.133,-0.242 0.289,-0.539 0.465,-0.898 0.25,-0.527 0.555,-1.168 0.831,-1.932 0.275,-0.763 0.575,-1.636 0.763,-2.628 0.182,-0.988 0.336,-2.098 0.145,-3.306 -0.095,-0.6 -0.276,-1.2268 -0.607,-1.8319 -0.335,-0.5973 -0.827,-1.1762 -1.468,-1.5891 -0.193,-0.1289 -0.398,-0.239 -0.608,-0.341 0.168,-0.1949 0.34,-0.4039 0.521,-0.6449 0.519,-0.6973 1.081,-1.6019 1.495,-2.7281 0.415,-1.1231 0.661,-2.4789 0.533,-3.925 -0.02,-0.1801 -0.04,-0.3621 -0.06,-0.5449 l -0.017,-0.1379 -0.008,-0.0692 -0.002,-0.0179 -0.007,-0.0411 -0.006,-0.032 -0.054,-0.2539 c -0.073,-0.3422 -0.13,-0.6793 -0.255,-1.068 -0.055,-0.189 -0.111,-0.3793 -0.168,-0.5711 -0.072,-0.1832 -0.144,-0.3691 -0.218,-0.5558 -0.13,-0.3774 -0.346,-0.7391 -0.537,-1.1113 -0.098,-0.1848 -0.235,-0.3571 -0.353,-0.5379 -0.12,-0.1789 -0.242,-0.359 -0.401,-0.5211 -0.151,-0.166 -0.297,-0.336 -0.456,-0.4989 -0.176,-0.1492 -0.354,-0.298 -0.533,-0.4468 -0.751,-0.5543 -1.643,-1.0063 -2.613,-1.1973 -0.961,-0.198 -1.962,-0.2508 -2.934,-0.1391 -0.243,0.0262 -0.489,0.0454 -0.731,0.0782 l -0.719,0.1398 c -0.485,0.0793 -0.949,0.2192 -1.419,0.3512 -0.474,0.1191 -0.927,0.291 -1.385,0.4539 -0.234,0.0859 -0.446,0.1551 -0.699,0.2543 l -0.655,0.2777 -0.657,0.2781 -0.663,0.325 c -0.22,0.1102 -0.446,0.2129 -0.66,0.3309 l -0.634,0.3652 c -0.431,0.2309 -0.821,0.5297 -1.228,0.795 -0.382,0.3007 -0.774,0.589 -1.124,0.9191 -0.718,0.6406 -1.341,1.3477 -1.947,2.018 -0.608,0.6707 -1.228,1.2949 -1.947,1.8008 -0.718,0.5031 -1.485,0.9429 -2.301,1.2691 -1.628,0.6801 -3.287,1.2219 -4.825,1.8078 -1.542,0.5813 -2.987,1.1992 -4.221,1.934 -1.238,0.7301 -2.244,1.5891 -2.973,2.4609 -0.391,0.4192 -0.652,0.8793 -0.929,1.2793 -0.233,0.4239 -0.436,0.8199 -0.603,1.1799 -0.14,0.372 -0.264,0.703 -0.371,0.992 -0.04,0.121 -0.069,0.233 -0.097,0.341 l -0.051,0.019 c -1.585,0.612 -3.06,1.552 -4.323,2.693 -1.265,1.143 -2.286,2.504 -3.111,3.931 -0.814,1.434 -1.451,2.938 -1.952,4.459 -1.005,3.042 -1.526,6.142 -2.252,9.062 -0.781,2.995 -1.274,6.001 -1.632,8.905 -0.354,2.909 -0.506,5.743 -0.412,8.434"
         style="fill:#3472c2;fill-opacity:1;fill-rule:nonzero;stroke:none;stroke-width:0.1"
         id="path422"
         inkscape:connector-curvature="0" /><path
         d="m 354.95454,163.0279 c -0.096,2.686 -0.435,5.253 -1.322,7.509 -0.449,1.12 -1.049,2.17 -1.899,2.984 -0.197,0.176 -0.402,0.338 -0.61,0.496 l 0.113,-0.007 c 0,0 0,0.241 -0.002,0.663 0.004,0.209 -0.009,0.467 -0.038,0.763 -0.011,0.147 -0.025,0.304 -0.039,0.469 -0.026,0.167 -0.055,0.341 -0.085,0.524 -0.015,0.09 -0.03,0.183 -0.045,0.277 -0.026,0.095 -0.05,0.191 -0.076,0.289 -0.057,0.195 -0.09,0.397 -0.175,0.601 -0.144,0.409 -0.332,0.836 -0.6,1.247 -0.139,0.204 -0.276,0.411 -0.459,0.596 -0.162,0.198 -0.367,0.367 -0.569,0.535 -0.12,0.089 -0.245,0.173 -0.371,0.253 l 0.031,0.126 c 0.064,0.272 0.151,0.668 0.246,1.173 0.188,1.011 0.404,2.46 0.453,4.216 0.023,0.878 -0.002,1.833 -0.123,2.839 -0.122,1.005 -0.338,2.066 -0.733,3.123 -0.4,1.053 -0.995,2.105 -1.848,2.997 -0.847,0.894 -1.954,1.597 -3.158,2.012 -0.303,0.107 -0.625,0.183 -0.935,0.273 -0.309,0.079 -0.599,0.114 -0.899,0.173 -0.299,0.05 -0.597,0.1 -0.894,0.15 -0.292,0.039 -0.57,0.116 -0.852,0.179 -0.155,0.037 -0.303,0.083 -0.454,0.126 0.241,0.074 0.537,0.178 0.857,0.38 0.458,0.276 0.965,0.758 1.273,1.444 0.159,0.34 0.261,0.721 0.33,1.124 0.066,0.404 0.065,0.827 0.045,1.263 -0.025,0.437 -0.093,0.882 -0.181,1.339 -0.097,0.453 -0.231,0.912 -0.383,1.377 -0.311,0.925 -0.705,1.876 -1.192,2.815 -0.963,1.887 -2.217,3.767 -3.595,5.555 -1.388,1.781 -2.904,3.469 -4.445,4.952 -0.769,0.744 -1.556,1.425 -2.334,2.047 -0.786,0.624 -1.541,1.176 -2.428,1.594 l -0.19,0.081 -0.157,0.054 c -0.144,0.052 -0.236,0.06 -0.355,0.091 -0.225,0.047 -0.435,0.111 -0.665,0.118 -0.226,0.017 -0.439,0.045 -0.661,0.018 -0.108,-0.008 -0.214,-0.016 -0.32,-0.024 -0.105,-0.018 -0.209,-0.047 -0.309,-0.07 -0.407,-0.09 -0.754,-0.295 -1.014,-0.515 -0.204,-0.193 -0.363,-0.39 -0.478,-0.584 -0.35,0.904 -0.806,1.804 -1.398,2.59 -0.613,0.82 -1.325,1.559 -2.101,2.219 -0.786,0.649 -1.632,1.218 -2.516,1.713 -0.889,0.488 -1.822,0.889 -2.77,1.232 -1.905,0.66 -3.901,1.061 -5.924,1.057 -1.009,-0.002 -2.026,-0.101 -3.021,-0.363 -0.989,-0.26 -1.972,-0.705 -2.758,-1.408 -0.794,-0.7 -1.31,-1.637 -1.49,-2.606 -0.186,-1.01 -0.075,-1.791 0.055,-2.659 0.148,-0.843 0.393,-1.719 0.981,-2.485 0.153,-0.203 0.334,-0.392 0.532,-0.562 l -0.061,-0.055 c -0.108,-0.11 -0.243,-0.229 -0.365,-0.376 -0.131,-0.141 -0.259,-0.305 -0.39,-0.485 -0.133,-0.178 -0.245,-0.383 -0.363,-0.596 -0.099,-0.219 -0.219,-0.445 -0.281,-0.694 -0.087,-0.242 -0.13,-0.499 -0.169,-0.758 -0.051,-0.259 -0.038,-0.52 -0.063,-0.783 0.003,-0.259 0.04,-0.514 0.082,-0.759 0.077,-0.233 0.174,-0.454 0.275,-0.655 0.103,-0.2 0.246,-0.365 0.366,-0.52 0.092,-0.123 0.192,-0.223 0.29,-0.313 -0.077,-0.103 -0.146,-0.206 -0.209,-0.311 -0.647,-1.03 -0.995,-2.094 -1.269,-3.157 -0.505,-2.131 -0.631,-4.27 -0.522,-6.369 0.055,-1.049 0.187,-2.089 0.419,-3.108 0.23,-1.018 0.553,-2.021 1.07,-2.974 0.255,-0.476 0.576,-0.94 1.001,-1.355 0.112,-0.101 0.208,-0.21 0.337,-0.301 l 0.385,-0.268 c 0.141,-0.079 0.294,-0.145 0.443,-0.214 l 0.037,-0.016 c -0.204,-0.354 -0.483,-0.835 -0.79,-1.461 -0.345,-0.691 -0.749,-1.54 -1.129,-2.548 -0.386,-1.005 -0.772,-2.164 -1.011,-3.483 -0.118,-0.659 -0.203,-1.359 -0.203,-2.1 0,-0.732 0.109,-1.54 0.387,-2.302 0.48,-1.325 0.678,-2.827 0.957,-4.422 0.133,-0.797 0.277,-1.619 0.469,-2.455 0.188,-0.837 0.437,-1.691 0.809,-2.533 0.364,-0.841 0.867,-1.674 1.542,-2.41 0.199,-0.215 0.418,-0.416 0.647,-0.608 -0.367,-0.239 -0.812,-0.597 -1.244,-1.122 -0.546,-0.66 -1.052,-1.572 -1.418,-2.677 -0.081,-0.277 -0.195,-0.561 -0.257,-0.861 -0.065,-0.3 -0.131,-0.608 -0.201,-0.926 -0.072,-0.317 -0.085,-0.645 -0.13,-0.981 -0.038,-0.337 -0.086,-0.682 -0.086,-1.032 -0.011,-0.352 -0.023,-0.711 -0.034,-1.078 -0.012,-0.366 0.022,-0.734 0.032,-1.113 0.019,-0.377 0.022,-0.764 0.07,-1.149 0.047,-0.387 0.094,-0.779 0.141,-1.176 0.048,-0.391 0.098,-0.787 0.148,-1.187 0.053,-0.401 0.106,-0.805 0.159,-1.214 0.096,-0.82 0.183,-1.628 0.258,-2.469 0.146,-1.682 0.167,-3.423 0.098,-5.175 -0.08,-1.745 -0.308,-3.534 -0.858,-5.156 -0.069,-0.197 -0.138,-0.4 -0.218,-0.578 l -0.059,-0.131 -0.041,-0.087 c -0.074,-0.127 -0.131,-0.231 -0.191,-0.346 -0.236,-0.448 -0.439,-0.898 -0.62,-1.361 -0.353,-0.926 -0.617,-1.896 -0.671,-2.919 -0.026,-0.512 0.004,-1.037 0.125,-1.561 0.127,-0.521 0.35,-1.037 0.676,-1.492 0.324,-0.457 0.744,-0.842 1.201,-1.144 l 0.349,-0.213 0.36,-0.178 c 0.121,-0.062 0.243,-0.109 0.366,-0.155 l 0.183,-0.07 0.052,-0.019 c -0.132,-0.242 -0.289,-0.539 -0.465,-0.898 -0.249,-0.527 -0.554,-1.168 -0.831,-1.932 -0.275,-0.763 -0.574,-1.636 -0.763,-2.628 -0.181,-0.988 -0.335,-2.098 -0.145,-3.306 0.095,-0.6 0.277,-1.2268 0.608,-1.8319 0.335,-0.5973 0.827,-1.1762 1.467,-1.5891 0.194,-0.1289 0.399,-0.239 0.609,-0.341 -0.167,-0.1949 -0.34,-0.4039 -0.521,-0.6449 -0.519,-0.6973 -1.081,-1.6019 -1.496,-2.7281 -0.414,-1.1231 -0.66,-2.4789 -0.532,-3.925 0.019,-0.1801 0.04,-0.3621 0.06,-0.5449 l 0.016,-0.1379 0.008,-0.0692 0.002,-0.0179 0.007,-0.0411 0.007,-0.032 0.053,-0.2539 c 0.073,-0.3422 0.131,-0.6793 0.256,-1.068 0.055,-0.189 0.111,-0.3793 0.167,-0.5711 0.072,-0.1832 0.145,-0.3691 0.219,-0.5558 0.13,-0.3774 0.345,-0.7391 0.536,-1.1113 0.098,-0.1848 0.235,-0.3571 0.353,-0.5379 0.121,-0.1789 0.242,-0.359 0.402,-0.5211 0.15,-0.166 0.298,-0.336 0.455,-0.4989 0.176,-0.1492 0.355,-0.298 0.534,-0.4468 0.751,-0.5543 1.643,-1.0063 2.613,-1.1973 0.961,-0.198 1.962,-0.2508 2.934,-0.1391 0.243,0.0262 0.488,0.0454 0.731,0.0782 l 0.719,0.1398 c 0.484,0.0793 0.949,0.2192 1.418,0.3512 0.476,0.1191 0.928,0.291 1.386,0.4539 0.233,0.0859 0.446,0.1551 0.698,0.2543 l 0.656,0.2777 0.657,0.2781 0.663,0.325 c 0.22,0.1102 0.446,0.2129 0.66,0.3309 l 0.634,0.3652 c 0.431,0.2309 0.82,0.5297 1.228,0.795 0.382,0.3007 0.774,0.589 1.123,0.9191 0.718,0.6406 1.341,1.3477 1.948,2.018 0.608,0.6707 1.228,1.2949 1.948,1.8008 0.717,0.5031 1.484,0.9429 2.299,1.2691 1.629,0.6801 3.288,1.2219 4.826,1.8078 1.542,0.5813 2.986,1.1992 4.221,1.934 1.238,0.7301 2.244,1.5891 2.973,2.4609 0.391,0.4192 0.651,0.8793 0.93,1.2793 0.231,0.4239 0.434,0.8199 0.602,1.1799 0.139,0.372 0.263,0.703 0.371,0.992 0.04,0.121 0.069,0.233 0.097,0.341 l 0.05,0.019 c 1.586,0.612 3.061,1.552 4.324,2.693 1.265,1.143 2.286,2.504 3.111,3.931 0.814,1.434 1.45,2.938 1.951,4.459 1.006,3.042 1.526,6.142 2.253,9.062 0.781,2.995 1.274,6.001 1.632,8.905 0.354,2.909 0.505,5.743 0.412,8.434"
         style="fill:#5b8330;fill-opacity:1;fill-rule:nonzero;stroke:none;stroke-width:0.1"
         id="path424"
         inkscape:connector-curvature="0" /><path
         d="m 281.97854,203.0799 v 6.897 l 4.174,4.485 h 5.385 l 3.673,3.947 v 4.359 l -3.472,3.731 -8.137,-0.847 -9.573,-11.037 v -13.024 l 3.646,-3.919 -8.655,-9.3 6.035,-6.486 v -13.075 l 4.641,-4.989 h 7.292 v 1.5 h -6.639 l -3.794,4.079 v 13.075 l -5.486,5.896 8.655,9.301 -4.196,4.509 v 11.872 l 8.819,10.168 6.803,0.708 2.561,-2.753 v -3.178 l -2.827,-3.037 -5.384,-0.001 -5.02,-5.394 v -7.487 h 1.5"
         style="fill:#ffffff;fill-opacity:1;fill-rule:nonzero;stroke:none;stroke-width:0.1"
         id="path426"
         inkscape:connector-curvature="0" /><path
         d="m 279.01654,214.4609 h 6.80898 v 1.5 h -6.80898 z"
         style="fill:#ffffff;fill-opacity:1;fill-rule:nonzero;stroke:none;stroke-width:0.1"
         id="path428"
         inkscape:connector-curvature="0" /><path
         d="m 283.63954,215.2109 v 1.462 l 3.071,3.301 h 2.636 v 1.5 h -3.289 l -3.918,-4.211 v -2.052 h 1.5"
         style="fill:#ffffff;fill-opacity:1;fill-rule:nonzero;stroke:none;stroke-width:0.1"
         id="path430"
         inkscape:connector-curvature="0" /><path
         d="m 275.94854,188.1919 h 5.418 l 4.24,4.557 h 6.204 l 4.279,4.598 v 11.816 l -3.269,3.513 h -5.092 l -3.558,-3.823 v -9.614 l -4.586,-4.93 1.098,-1.021 4.988,5.361 v 9.613 l 2.711,2.914 h 3.785 l 2.423,-2.603 v -10.635 l -3.433,-3.689 h -6.203 l -4.24,-4.557 h -4.765 v -1.5"
         style="fill:#ffffff;fill-opacity:1;fill-rule:nonzero;stroke:none;stroke-width:0.1"
         id="path432"
         inkscape:connector-curvature="0" /><path
         d="m 284.92054,203.2249 h 3.4 l 2.148,-2.31 1.099,1.022 -2.594,2.788 h -4.053 v -1.5"
         style="fill:#ffffff;fill-opacity:1;fill-rule:nonzero;stroke:none;stroke-width:0.1"
         id="path434"
         inkscape:connector-curvature="0" /><path
         d="m 274.77854,213.7459 h -5.067 l -8.393,-9.282 v -10.459 h 1.5 l -10e-4,9.881 7.56,8.36 h 4.401 v 1.5"
         style="fill:#ffffff;fill-opacity:1;fill-rule:nonzero;stroke:none;stroke-width:0.1"
         id="path436"
         inkscape:connector-curvature="0" /><path
         d="m 263.73154,172.2179 -2.149,2.309 -6.365,-0.251 v 16.21 l 2.576,2.769 h 6.113 l 5.745,6.175 v 5.499 h -1.499 v -4.909 l -4.899,-5.265 h -6.113 l -3.423,-3.679 v -18.36 l 7.236,0.285 1.679,-1.805 1.099,1.022"
         style="fill:#ffffff;fill-opacity:1;fill-rule:nonzero;stroke:none;stroke-width:0.1"
         id="path438"
         inkscape:connector-curvature="0" /><path
         d="m 253.91854,174.0069 -3.789,-4.073 v -20.728 l 3.671,-3.945 v -11.755 l 8.033,-8.634 h 11.448 l 5.596,-6.015 h 9.258 v 1.5 h -8.605 l -5.596,6.015 h -11.447 l -7.187,7.725 v 11.754 l -3.671,3.946 v 19.547 l 3.387,3.641 -1.098,1.022"
         style="fill:#ffffff;fill-opacity:1;fill-rule:nonzero;stroke:none;stroke-width:0.1"
         id="path440"
         inkscape:connector-curvature="0" /><path
         d="m 264.02954,125.1109 8.472,-9.1071 h 3.685 l 6.64,-7.1367 h 9.133 l 4.941,5.3098 v 3.9851 l -4.435,4.766 -1.098,-1.0211 4.034,-4.3351 v -2.8051 l -4.095,-4.3996 h -7.826 l -6.641,7.1367 h -3.684 l -8.028,8.6291 -1.098,-1.022"
         style="fill:#ffffff;fill-opacity:1;fill-rule:nonzero;stroke:none;stroke-width:0.1"
         id="path442"
         inkscape:connector-curvature="0" /><path
         d="m 276.51354,116.0038 h 5.07 l 4.159,-4.4699 h 4.168 v 1.5 h -3.514 l -4.159,4.4699 h -5.724 v -1.5"
         style="fill:#ffffff;fill-opacity:1;fill-rule:nonzero;stroke:none;stroke-width:0.1"
         id="path444"
         inkscape:connector-curvature="0" /><path
         d="m 283.21254,114.778 h 7.22305 v 1.5 h -7.22305 z"
         style="fill:#ffffff;fill-opacity:1;fill-rule:nonzero;stroke:none;stroke-width:0.1"
         id="path446"
         inkscape:connector-curvature="0" /><path
         d="m 270.96154,196.1579 -5.1,-5.48 h -6.053 v -9.312 l 19.866,-21.353 1.099,1.022 -19.466,20.922 v 7.221 h 5.207 l 5.545,5.959 -1.098,1.021"
         style="fill:#ffffff;fill-opacity:1;fill-rule:nonzero;stroke:none;stroke-width:0.1"
         id="path448"
         inkscape:connector-curvature="0" /><path
         d="m 260.55854,184.2429 h 5.149 l 5.562,-5.978 1.099,1.022 -6.008,6.456 h -5.802 v -1.5"
         style="fill:#ffffff;fill-opacity:1;fill-rule:nonzero;stroke:none;stroke-width:0.1"
         id="path450"
         inkscape:connector-curvature="0" /><path
         d="m 290.93454,192.9879 3.173,-3.411 0.001,-5.48 v -8.01 l -5.444,-5.85 h -7.143 l -2.169,2.331 v 11.774 h -1.499 v -12.365 l 3.014,-3.24 h 8.451 l 6.289,6.76 v 8.6 6.07 l -3.574,3.843 -1.099,-1.022"
         style="fill:#ffffff;fill-opacity:1;fill-rule:nonzero;stroke:none;stroke-width:0.1"
         id="path452"
         inkscape:connector-curvature="0" /><path
         d="m 279.15254,174.3189 4.282,4.602 v 7.099 h -1.5 v -6.509 l -3.881,-4.171 1.099,-1.021"
         style="fill:#ffffff;fill-opacity:1;fill-rule:nonzero;stroke:none;stroke-width:0.1"
         id="path454"
         inkscape:connector-curvature="0" /><path
         d="m 294.30854,190.3829 -5.959,-6.405 v -7.359 h 1.5 v 6.769 l 5.558,5.973 -1.098,1.022"
         style="fill:#ffffff;fill-opacity:1;fill-rule:nonzero;stroke:none;stroke-width:0.1"
         id="path456"
         inkscape:connector-curvature="0" /><path
         d="m 266.64454,166.8489 v -8.015 l 4.284,-4.605 h 10.835 l 4.034,4.336 h 4.298 v 1.5 h -4.951 l -4.034,-4.336 h -9.529 l -3.438,3.696 v 7.424 h -1.499"
         style="fill:#ffffff;fill-opacity:1;fill-rule:nonzero;stroke:none;stroke-width:0.1"
         id="path458"
         inkscape:connector-curvature="0" /><path
         d="m 290.40054,171.0809 3.848,-4.136 v -27.817 l -3.901,-4.194 h -3.29 l -5.879,6.319 v 6.449 h -1.5 v -7.039 l 6.726,-7.229 h 4.596 l 4.748,5.103 v 28.998 l -4.25,4.568 -1.098,-1.022"
         style="fill:#ffffff;fill-opacity:1;fill-rule:nonzero;stroke:none;stroke-width:0.1"
         id="path460"
         inkscape:connector-curvature="0" /><path
         d="m 275.59154,141.3709 9.993,-10.741 v -5.711 l 2.834,-3.0459 h 5.289 l 3.868,4.1579 v 7.848 l -3.712,3.711 -1.06,-1.06 3.272,-3.273 v -6.636 l -3.021,-3.2479 h -3.983 l -1.987,2.1359 v 5.712 l -10.394,11.171 -1.098,-1.022"
         style="fill:#ffffff;fill-opacity:1;fill-rule:nonzero;stroke:none;stroke-width:0.1"
         id="path462"
         inkscape:connector-curvature="0" /><path
         d="m 290.12554,133.6729 2.3,-2.472 v -5.376 h 1.5 v 5.966 l -2.702,2.904 -1.098,-1.022"
         style="fill:#ffffff;fill-opacity:1;fill-rule:nonzero;stroke:none;stroke-width:0.1"
         id="path464"
         inkscape:connector-curvature="0" /><path
         d="m 259.05854,169.1059 v -10.272 l 10.235,-11.001 h 6.66 l 3.378,3.631 -1.098,1.022 -2.934,-3.153 h -5.352 l -9.39,10.092 10e-4,9.681 h -1.5"
         style="fill:#ffffff;fill-opacity:1;fill-rule:nonzero;stroke:none;stroke-width:0.1"
         id="path466"
         inkscape:connector-curvature="0" /><path
         d="m 268.87054,148.5829 v -6.142 l 11.279,-12.122 1.099,1.021 -10.878,11.691 v 5.552 h -1.499"
         style="fill:#ffffff;fill-opacity:1;fill-rule:nonzero;stroke:none;stroke-width:0.1"
         id="path468"
         inkscape:connector-curvature="0" /><path
         d="m 273.93154,137.2959 v -7.587 l 6.494,-6.9781 1.098,1.0221 -6.092,6.546 v 6.997 h -1.5"
         style="fill:#ffffff;fill-opacity:1;fill-rule:nonzero;stroke:none;stroke-width:0.1"
         id="path470"
         inkscape:connector-curvature="0" /><path
         d="m 254.55054,144.8059 h 6.464 l 8.459,-9.09 1.098,1.022 -8.904,9.568 h -7.117 v -1.5"
         style="fill:#ffffff;fill-opacity:1;fill-rule:nonzero;stroke:none;stroke-width:0.1"
         id="path472"
         inkscape:connector-curvature="0" /><path
         d="m 254.21554,166.8489 v -9.576 l 10.612,-11.405 1.098,1.021 -10.21,10.974 v 8.986 h -1.5"
         style="fill:#ffffff;fill-opacity:1;fill-rule:nonzero;stroke:none;stroke-width:0.1"
         id="path474"
         inkscape:connector-curvature="0" /><path
         d="m 258.12854,154.0899 -3.3,-3.547 2.557,-2.75 1.099,1.022 -1.607,1.728 2.349,2.525 -1.098,1.021"
         style="fill:#ffffff;fill-opacity:1;fill-rule:nonzero;stroke:none;stroke-width:0.1"
         id="path476"
         inkscape:connector-curvature="0" /><path
         d="m 280.88754,154.4679 5.265,-5.658 h 5.772 v 1.5 h -5.119 l -4.819,5.18 -1.098,-1.022"
         style="fill:#ffffff;fill-opacity:1;fill-rule:nonzero;stroke:none;stroke-width:0.1"
         id="path478"
         inkscape:connector-curvature="0" /><path
         d="m 285.72954,149.5599 v -6.339 l 4.055,-4.358 1.098,1.021 -3.654,3.927 v 5.749 h -1.499"
         style="fill:#ffffff;fill-opacity:1;fill-rule:nonzero;stroke:none;stroke-width:0.1"
         id="path480"
         inkscape:connector-curvature="0" /><path
         d="m 265.29954,141.0199 -5.206,-5.596 5.233,-5.624 1.098,1.022 -4.282,4.602 4.256,4.574 -1.098,1.022"
         style="fill:#ffffff;fill-opacity:1;fill-rule:nonzero;stroke:none;stroke-width:0.1"
         id="path482"
         inkscape:connector-curvature="0" /><path
         d="m 275.90854,165.0829 -3.949,-4.244 1.098,-1.022 3.949,4.244"
         style="fill:#ffffff;fill-opacity:1;fill-rule:nonzero;stroke:none;stroke-width:0.1"
         id="path484"
         inkscape:connector-curvature="0" /><path
         d="m 292.52654,216.6669 1.941,-1.941 v -2.489 l -1.192,-1.192 1.061,-1.061 1.631,1.632 v 3.732 l -2.38,2.379 -1.06,-1.061"
         style="fill:#ffffff;fill-opacity:1;fill-rule:nonzero;stroke:none;stroke-width:0.1"
         id="path486"
         inkscape:connector-curvature="0" /><path
         d="m 287.88954,221.3049 c 0,-0.962 0.725,-1.741 1.62,-1.741 0.895,0 1.62,0.779 1.62,1.741 0,0.961 -0.725,1.741 -1.62,1.741 -0.895,0 -1.62,-0.78 -1.62,-1.741"
         style="fill:#4db0e6;fill-opacity:1;fill-rule:nonzero;stroke:none;stroke-width:0.1"
         id="path488"
         inkscape:connector-curvature="0" /><path
         d="m 289.50954,220.7319 c 0.245,0 0.452,0.262 0.452,0.573 0,0.31 -0.207,0.573 -0.452,0.573 -0.244,0 -0.451,-0.263 -0.451,-0.573 0,-0.311 0.207,-0.573 0.451,-0.573"
         style="fill:#4db0e6;fill-opacity:1;fill-rule:nonzero;stroke:none;stroke-width:0.1"
         id="path490"
         inkscape:connector-curvature="0" /><path
         d="m 277.44854,215.7329 c 0,-0.961 0.726,-1.741 1.621,-1.741 0.894,0 1.62,0.78 1.62,1.741 0,0.962 -0.726,1.741 -1.62,1.741 -0.895,0 -1.621,-0.779 -1.621,-1.741"
         style="fill:#4db0e6;fill-opacity:1;fill-rule:nonzero;stroke:none;stroke-width:0.1"
         id="path492"
         inkscape:connector-curvature="0" /><path
         d="m 279.06954,215.1599 c 0.245,0 0.451,0.262 0.451,0.573 0,0.311 -0.206,0.573 -0.451,0.573 -0.246,0 -0.453,-0.262 -0.453,-0.573 0,-0.311 0.207,-0.573 0.453,-0.573"
         style="fill:#4db0e6;fill-opacity:1;fill-rule:nonzero;stroke:none;stroke-width:0.1"
         id="path494"
         inkscape:connector-curvature="0" /><path
         d="m 279.67554,203.4539 c 0,-0.962 0.726,-1.741 1.62,-1.741 0.895,0 1.62,0.779 1.62,1.741 0,0.962 -0.725,1.741 -1.62,1.741 -0.894,0 -1.62,-0.779 -1.62,-1.741"
         style="fill:#4db0e6;fill-opacity:1;fill-rule:nonzero;stroke:none;stroke-width:0.1"
         id="path496"
         inkscape:connector-curvature="0" /><path
         d="m 281.29554,202.8809 c 0.245,0 0.451,0.263 0.451,0.573 0,0.31 -0.206,0.573 -0.451,0.573 -0.245,0 -0.452,-0.263 -0.452,-0.573 0,-0.31 0.207,-0.573 0.452,-0.573"
         style="fill:#4db0e6;fill-opacity:1;fill-rule:nonzero;stroke:none;stroke-width:0.1"
         id="path498"
         inkscape:connector-curvature="0" /><path
         d="m 289.57954,201.7999 c 0,-0.961 0.726,-1.741 1.62,-1.741 0.895,0 1.621,0.78 1.621,1.741 0,0.962 -0.726,1.742 -1.621,1.742 -0.894,0 -1.62,-0.78 -1.62,-1.742"
         style="fill:#4db0e6;fill-opacity:1;fill-rule:nonzero;stroke:none;stroke-width:0.1"
         id="path500"
         inkscape:connector-curvature="0" /><path
         d="m 291.19954,201.2269 c 0.246,0 0.453,0.263 0.453,0.573 0,0.311 -0.207,0.573 -0.453,0.573 -0.245,0 -0.452,-0.262 -0.452,-0.573 0,-0.31 0.207,-0.573 0.452,-0.573"
         style="fill:#4db0e6;fill-opacity:1;fill-rule:nonzero;stroke:none;stroke-width:0.1"
         id="path502"
         inkscape:connector-curvature="0" /><path
         d="m 278.65254,194.2179 c 0,-0.961 0.725,-1.74 1.62,-1.74 0.894,0 1.62,0.779 1.62,1.74 0,0.962 -0.726,1.742 -1.62,1.742 -0.895,0 -1.62,-0.78 -1.62,-1.742"
         style="fill:#4db0e6;fill-opacity:1;fill-rule:nonzero;stroke:none;stroke-width:0.1"
         id="path504"
         inkscape:connector-curvature="0" /><path
         d="m 280.27254,193.6459 c 0.245,0 0.451,0.262 0.451,0.572 0,0.311 -0.206,0.574 -0.451,0.574 -0.245,0 -0.452,-0.263 -0.452,-0.574 0,-0.31 0.207,-0.572 0.452,-0.572"
         style="fill:#4db0e6;fill-opacity:1;fill-rule:nonzero;stroke:none;stroke-width:0.1"
         id="path506"
         inkscape:connector-curvature="0" /><path
         d="m 274.34954,189.1819 c 0,-0.962 0.725,-1.741 1.62,-1.741 0.894,0 1.62,0.779 1.62,1.741 0,0.962 -0.726,1.741 -1.62,1.741 -0.895,0 -1.62,-0.779 -1.62,-1.741"
         style="fill:#4db0e6;fill-opacity:1;fill-rule:nonzero;stroke:none;stroke-width:0.1"
         id="path508"
         inkscape:connector-curvature="0" /><path
         d="m 275.96954,188.6089 c 0.244,0 0.451,0.263 0.451,0.573 0,0.31 -0.207,0.573 -0.451,0.573 -0.245,0 -0.452,-0.263 -0.452,-0.573 0,-0.31 0.207,-0.573 0.452,-0.573"
         style="fill:#4db0e6;fill-opacity:1;fill-rule:nonzero;stroke:none;stroke-width:0.1"
         id="path510"
         inkscape:connector-curvature="0" /><path
         d="m 277.03154,184.6669 c 0,-0.962 0.726,-1.741 1.621,-1.741 0.894,0 1.62,0.779 1.62,1.741 0,0.961 -0.726,1.741 -1.62,1.741 -0.895,0 -1.621,-0.78 -1.621,-1.741"
         style="fill:#4db0e6;fill-opacity:1;fill-rule:nonzero;stroke:none;stroke-width:0.1"
         id="path512"
         inkscape:connector-curvature="0" /><path
         d="m 278.65254,184.0939 c 0.245,0 0.452,0.262 0.452,0.573 0,0.311 -0.207,0.573 -0.452,0.573 -0.246,0 -0.453,-0.262 -0.453,-0.573 0,-0.311 0.207,-0.573 0.453,-0.573"
         style="fill:#4db0e6;fill-opacity:1;fill-rule:nonzero;stroke:none;stroke-width:0.1"
         id="path514"
         inkscape:connector-curvature="0" /><path
         d="m 281.15654,186.4079 c 0,-0.962 0.726,-1.741 1.621,-1.741 0.894,0 1.62,0.779 1.62,1.741 0,0.962 -0.726,1.741 -1.62,1.741 -0.895,0 -1.621,-0.779 -1.621,-1.741"
         style="fill:#4db0e6;fill-opacity:1;fill-rule:nonzero;stroke:none;stroke-width:0.1"
         id="path516"
         inkscape:connector-curvature="0" /><path
         d="m 282.77754,185.8349 c 0.245,0 0.452,0.263 0.452,0.573 0,0.311 -0.207,0.573 -0.452,0.573 -0.246,0 -0.453,-0.262 -0.453,-0.573 0,-0.31 0.207,-0.573 0.453,-0.573"
         style="fill:#4db0e6;fill-opacity:1;fill-rule:nonzero;stroke:none;stroke-width:0.1"
         id="path518"
         inkscape:connector-curvature="0" /><path
         d="m 287.64054,177.1659 c 0,-0.962 0.724,-1.741 1.62,-1.741 0.894,0 1.619,0.779 1.619,1.741 0,0.961 -0.725,1.741 -1.619,1.741 -0.896,0 -1.62,-0.78 -1.62,-1.741"
         style="fill:#4db0e6;fill-opacity:1;fill-rule:nonzero;stroke:none;stroke-width:0.1"
         id="path520"
         inkscape:connector-curvature="0" /><path
         d="m 289.26054,176.5929 c 0.244,0 0.451,0.263 0.451,0.573 0,0.311 -0.207,0.573 -0.451,0.573 -0.245,0 -0.452,-0.262 -0.452,-0.573 0,-0.31 0.207,-0.573 0.452,-0.573"
         style="fill:#4db0e6;fill-opacity:1;fill-rule:nonzero;stroke:none;stroke-width:0.1"
         id="path522"
         inkscape:connector-curvature="0" /><path
         d="m 267.22754,205.3399 c 0,-0.961 0.724,-1.741 1.62,-1.741 0.894,0 1.62,0.78 1.62,1.741 0,0.962 -0.726,1.742 -1.62,1.742 -0.896,0 -1.62,-0.78 -1.62,-1.742"
         style="fill:#4db0e6;fill-opacity:1;fill-rule:nonzero;stroke:none;stroke-width:0.1"
         id="path524"
         inkscape:connector-curvature="0" /><path
         d="m 268.84754,204.7679 c 0.245,0 0.451,0.262 0.451,0.572 0,0.311 -0.206,0.574 -0.451,0.574 -0.245,0 -0.452,-0.263 -0.452,-0.574 0,-0.31 0.207,-0.572 0.452,-0.572"
         style="fill:#4db0e6;fill-opacity:1;fill-rule:nonzero;stroke:none;stroke-width:0.1"
         id="path526"
         inkscape:connector-curvature="0" /><path
         d="m 269.86254,195.9599 c 0,-0.962 0.725,-1.742 1.621,-1.742 0.894,0 1.62,0.78 1.62,1.742 0,0.961 -0.726,1.741 -1.62,1.741 -0.896,0 -1.621,-0.78 -1.621,-1.741"
         style="fill:#4db0e6;fill-opacity:1;fill-rule:nonzero;stroke:none;stroke-width:0.1"
         id="path528"
         inkscape:connector-curvature="0" /><path
         d="m 271.48354,195.3869 c 0.245,0 0.451,0.262 0.451,0.573 0,0.31 -0.206,0.573 -0.451,0.573 -0.246,0 -0.453,-0.263 -0.453,-0.573 0,-0.311 0.207,-0.573 0.453,-0.573"
         style="fill:#4db0e6;fill-opacity:1;fill-rule:nonzero;stroke:none;stroke-width:0.1"
         id="path530"
         inkscape:connector-curvature="0" /><path
         d="m 270.17454,178.9069 c 0,-0.962 0.726,-1.741 1.62,-1.741 0.895,0 1.62,0.779 1.62,1.741 0,0.962 -0.725,1.741 -1.62,1.741 -0.894,0 -1.62,-0.779 -1.62,-1.741"
         style="fill:#4db0e6;fill-opacity:1;fill-rule:nonzero;stroke:none;stroke-width:0.1"
         id="path532"
         inkscape:connector-curvature="0" /><path
         d="m 271.79454,178.3349 c 0.245,0 0.452,0.262 0.452,0.572 0,0.311 -0.207,0.573 -0.452,0.573 -0.245,0 -0.452,-0.262 -0.452,-0.573 0,-0.31 0.207,-0.572 0.452,-0.572"
         style="fill:#4db0e6;fill-opacity:1;fill-rule:nonzero;stroke:none;stroke-width:0.1"
         id="path534"
         inkscape:connector-curvature="0" /><path
         d="m 278.83654,160.4599 c 0,-0.961 0.726,-1.741 1.62,-1.741 0.895,0 1.62,0.78 1.62,1.741 0,0.962 -0.725,1.742 -1.62,1.742 -0.894,0 -1.62,-0.78 -1.62,-1.742"
         style="fill:#4db0e6;fill-opacity:1;fill-rule:nonzero;stroke:none;stroke-width:0.1"
         id="path536"
         inkscape:connector-curvature="0" /><path
         d="m 280.45654,159.8869 c 0.245,0 0.451,0.263 0.451,0.573 0,0.311 -0.206,0.574 -0.451,0.574 -0.245,0 -0.452,-0.263 -0.452,-0.574 0,-0.31 0.207,-0.573 0.452,-0.573"
         style="fill:#4db0e6;fill-opacity:1;fill-rule:nonzero;stroke:none;stroke-width:0.1"
         id="path538"
         inkscape:connector-curvature="0" /><path
         d="m 271.10054,160.4599 c 0,-0.961 0.725,-1.741 1.62,-1.741 0.894,0 1.62,0.78 1.62,1.741 0,0.962 -0.726,1.742 -1.62,1.742 -0.895,0 -1.62,-0.78 -1.62,-1.742"
         style="fill:#4db0e6;fill-opacity:1;fill-rule:nonzero;stroke:none;stroke-width:0.1"
         id="path540"
         inkscape:connector-curvature="0" /><path
         d="m 272.72054,159.8869 c 0.245,0 0.452,0.263 0.452,0.573 0,0.311 -0.207,0.574 -0.452,0.574 -0.245,0 -0.452,-0.263 -0.452,-0.574 0,-0.31 0.207,-0.573 0.452,-0.573"
         style="fill:#4db0e6;fill-opacity:1;fill-rule:nonzero;stroke:none;stroke-width:0.1"
         id="path542"
         inkscape:connector-curvature="0" /><path
         d="m 261.55254,171.7629 c 0,-0.962 0.726,-1.741 1.62,-1.741 0.895,0 1.62,0.779 1.62,1.741 0,0.962 -0.725,1.741 -1.62,1.741 -0.894,0 -1.62,-0.779 -1.62,-1.741"
         style="fill:#4db0e6;fill-opacity:1;fill-rule:nonzero;stroke:none;stroke-width:0.1"
         id="path544"
         inkscape:connector-curvature="0" /><path
         d="m 263.17254,171.1899 c 0.245,0 0.452,0.262 0.452,0.573 0,0.31 -0.207,0.573 -0.452,0.573 -0.245,0 -0.452,-0.263 -0.452,-0.573 0,-0.311 0.207,-0.573 0.452,-0.573"
         style="fill:#4db0e6;fill-opacity:1;fill-rule:nonzero;stroke:none;stroke-width:0.1"
         id="path546"
         inkscape:connector-curvature="0" /><path
         d="m 258.03454,168.5939 c 0,-0.961 0.726,-1.741 1.62,-1.741 0.895,0 1.621,0.78 1.621,1.741 0,0.962 -0.726,1.741 -1.621,1.741 -0.894,0 -1.62,-0.779 -1.62,-1.741"
         style="fill:#4db0e6;fill-opacity:1;fill-rule:nonzero;stroke:none;stroke-width:0.1"
         id="path548"
         inkscape:connector-curvature="0" /><path
         d="m 259.65454,168.0219 c 0.246,0 0.453,0.262 0.453,0.572 0,0.311 -0.207,0.574 -0.453,0.574 -0.245,0 -0.451,-0.263 -0.451,-0.574 0,-0.31 0.206,-0.572 0.451,-0.572"
         style="fill:#4db0e6;fill-opacity:1;fill-rule:nonzero;stroke:none;stroke-width:0.1"
         id="path550"
         inkscape:connector-curvature="0" /><path
         d="m 253.14154,165.6719 c 0,-0.961 0.724,-1.741 1.619,-1.741 0.895,0 1.62,0.78 1.62,1.741 0,0.962 -0.725,1.742 -1.62,1.742 -0.895,0 -1.619,-0.78 -1.619,-1.742"
         style="fill:#4db0e6;fill-opacity:1;fill-rule:nonzero;stroke:none;stroke-width:0.1"
         id="path552"
         inkscape:connector-curvature="0" /><path
         d="m 254.76154,165.0999 c 0.244,0 0.451,0.262 0.451,0.572 0,0.311 -0.207,0.574 -0.451,0.574 -0.245,0 -0.452,-0.263 -0.452,-0.574 0,-0.31 0.207,-0.572 0.452,-0.572"
         style="fill:#4db0e6;fill-opacity:1;fill-rule:nonzero;stroke:none;stroke-width:0.1"
         id="path554"
         inkscape:connector-curvature="0" /><path
         d="m 255.94754,148.3899 c 0,-0.961 0.726,-1.741 1.621,-1.741 0.894,0 1.62,0.78 1.62,1.741 0,0.962 -0.726,1.741 -1.62,1.741 -0.895,0 -1.621,-0.779 -1.621,-1.741"
         style="fill:#4db0e6;fill-opacity:1;fill-rule:nonzero;stroke:none;stroke-width:0.1"
         id="path556"
         inkscape:connector-curvature="0" /><path
         d="m 257.56854,147.8179 c 0.245,0 0.451,0.262 0.451,0.572 0,0.312 -0.206,0.573 -0.451,0.573 -0.246,0 -0.453,-0.261 -0.453,-0.573 0,-0.31 0.207,-0.572 0.453,-0.572"
         style="fill:#4db0e6;fill-opacity:1;fill-rule:nonzero;stroke:none;stroke-width:0.1"
         id="path558"
         inkscape:connector-curvature="0" /><path
         d="m 263.38354,146.3689 c 0,-0.962 0.726,-1.742 1.62,-1.742 0.895,0 1.62,0.78 1.62,1.742 0,0.962 -0.725,1.741 -1.62,1.741 -0.894,0 -1.62,-0.779 -1.62,-1.741"
         style="fill:#4db0e6;fill-opacity:1;fill-rule:nonzero;stroke:none;stroke-width:0.1"
         id="path560"
         inkscape:connector-curvature="0" /><path
         d="m 265.00354,145.7949 c 0.245,0 0.452,0.263 0.452,0.574 0,0.31 -0.207,0.573 -0.452,0.573 -0.245,0 -0.452,-0.263 -0.452,-0.573 0,-0.311 0.207,-0.574 0.452,-0.574"
         style="fill:#4db0e6;fill-opacity:1;fill-rule:nonzero;stroke:none;stroke-width:0.1"
         id="path562"
         inkscape:connector-curvature="0" /><path
         d="m 276.97654,151.4819 c 0,-0.962 0.724,-1.741 1.62,-1.741 0.894,0 1.62,0.779 1.62,1.741 0,0.961 -0.726,1.741 -1.62,1.741 -0.896,0 -1.62,-0.78 -1.62,-1.741"
         style="fill:#4db0e6;fill-opacity:1;fill-rule:nonzero;stroke:none;stroke-width:0.1"
         id="path564"
         inkscape:connector-curvature="0" /><path
         d="m 278.59654,150.9089 c 0.244,0 0.451,0.262 0.451,0.573 0,0.311 -0.207,0.572 -0.451,0.572 -0.245,0 -0.452,-0.261 -0.452,-0.572 0,-0.311 0.207,-0.573 0.452,-0.573"
         style="fill:#4db0e6;fill-opacity:1;fill-rule:nonzero;stroke:none;stroke-width:0.1"
         id="path566"
         inkscape:connector-curvature="0" /><path
         d="m 265.70254,166.5089 c 0,-0.962 0.726,-1.741 1.62,-1.741 0.895,0 1.621,0.779 1.621,1.741 0,0.961 -0.726,1.742 -1.621,1.742 -0.894,0 -1.62,-0.781 -1.62,-1.742"
         style="fill:#4db0e6;fill-opacity:1;fill-rule:nonzero;stroke:none;stroke-width:0.1"
         id="path568"
         inkscape:connector-curvature="0" /><path
         d="m 267.32254,165.9359 c 0.246,0 0.453,0.263 0.453,0.573 0,0.311 -0.207,0.573 -0.453,0.573 -0.245,0 -0.452,-0.262 -0.452,-0.573 0,-0.31 0.207,-0.573 0.452,-0.573"
         style="fill:#4db0e6;fill-opacity:1;fill-rule:nonzero;stroke:none;stroke-width:0.1"
         id="path570"
         inkscape:connector-curvature="0" /><path
         d="m 285.19554,164.5509 c 0,-0.961 0.726,-1.741 1.621,-1.741 0.894,0 1.62,0.78 1.62,1.741 0,0.962 -0.726,1.742 -1.62,1.742 -0.895,0 -1.621,-0.78 -1.621,-1.742"
         style="fill:#4db0e6;fill-opacity:1;fill-rule:nonzero;stroke:none;stroke-width:0.1"
         id="path572"
         inkscape:connector-curvature="0" /><path
         d="m 286.81654,163.9779 c 0.245,0 0.452,0.263 0.452,0.573 0,0.311 -0.207,0.574 -0.452,0.574 -0.246,0 -0.453,-0.263 -0.453,-0.574 0,-0.31 0.207,-0.573 0.453,-0.573"
         style="fill:#4db0e6;fill-opacity:1;fill-rule:nonzero;stroke:none;stroke-width:0.1"
         id="path574"
         inkscape:connector-curvature="0" /><path
         d="m 288.28554,159.3109 c 0,-0.961 0.726,-1.741 1.62,-1.741 0.896,0 1.621,0.78 1.621,1.741 0,0.962 -0.725,1.741 -1.621,1.741 -0.894,0 -1.62,-0.779 -1.62,-1.741"
         style="fill:#4db0e6;fill-opacity:1;fill-rule:nonzero;stroke:none;stroke-width:0.1"
         id="path576"
         inkscape:connector-curvature="0" /><path
         d="m 289.90554,158.7389 c 0.246,0 0.453,0.262 0.453,0.572 0,0.311 -0.207,0.573 -0.453,0.573 -0.245,0 -0.451,-0.262 -0.451,-0.573 0,-0.31 0.206,-0.572 0.451,-0.572"
         style="fill:#4db0e6;fill-opacity:1;fill-rule:nonzero;stroke:none;stroke-width:0.1"
         id="path578"
         inkscape:connector-curvature="0" /><path
         d="m 290.13354,149.3779 c 0,-0.96 0.725,-1.741 1.62,-1.741 0.895,0 1.62,0.781 1.62,1.741 0,0.962 -0.725,1.742 -1.62,1.742 -0.895,0 -1.62,-0.78 -1.62,-1.742"
         style="fill:#4db0e6;fill-opacity:1;fill-rule:nonzero;stroke:none;stroke-width:0.1"
         id="path580"
         inkscape:connector-curvature="0" /><path
         d="m 291.75354,148.8059 c 0.244,0 0.451,0.262 0.451,0.572 0,0.311 -0.207,0.574 -0.451,0.574 -0.245,0 -0.452,-0.263 -0.452,-0.574 0,-0.31 0.207,-0.572 0.452,-0.572"
         style="fill:#4db0e6;fill-opacity:1;fill-rule:nonzero;stroke:none;stroke-width:0.1"
         id="path582"
         inkscape:connector-curvature="0" /><path
         d="m 288.51354,139.4189 c 0,-0.961 0.724,-1.741 1.62,-1.741 0.895,0 1.62,0.78 1.62,1.741 0,0.961 -0.725,1.742 -1.62,1.742 -0.896,0 -1.62,-0.781 -1.62,-1.742"
         style="fill:#4db0e6;fill-opacity:1;fill-rule:nonzero;stroke:none;stroke-width:0.1"
         id="path584"
         inkscape:connector-curvature="0" /><path
         d="m 290.13354,138.8459 c 0.245,0 0.451,0.263 0.451,0.573 0,0.311 -0.206,0.573 -0.451,0.573 -0.245,0 -0.452,-0.262 -0.452,-0.573 0,-0.31 0.207,-0.573 0.452,-0.573"
         style="fill:#4db0e6;fill-opacity:1;fill-rule:nonzero;stroke:none;stroke-width:0.1"
         id="path586"
         inkscape:connector-curvature="0" /><path
         d="m 278.87654,146.3689 c 0,-0.962 0.726,-1.742 1.62,-1.742 0.895,0 1.62,0.78 1.62,1.742 0,0.962 -0.725,1.741 -1.62,1.741 -0.894,0 -1.62,-0.779 -1.62,-1.741"
         style="fill:#4db0e6;fill-opacity:1;fill-rule:nonzero;stroke:none;stroke-width:0.1"
         id="path588"
         inkscape:connector-curvature="0" /><path
         d="m 280.49654,145.7949 c 0.244,0 0.451,0.263 0.451,0.574 0,0.31 -0.207,0.573 -0.451,0.573 -0.245,0 -0.452,-0.263 -0.452,-0.573 0,-0.311 0.207,-0.574 0.452,-0.574"
         style="fill:#4db0e6;fill-opacity:1;fill-rule:nonzero;stroke:none;stroke-width:0.1"
         id="path590"
         inkscape:connector-curvature="0" /><path
         d="m 274.54254,141.6179 c 0,-0.961 0.726,-1.741 1.62,-1.741 0.896,0 1.62,0.78 1.62,1.741 0,0.962 -0.724,1.741 -1.62,1.741 -0.894,0 -1.62,-0.779 -1.62,-1.741"
         style="fill:#4db0e6;fill-opacity:1;fill-rule:nonzero;stroke:none;stroke-width:0.1"
         id="path592"
         inkscape:connector-curvature="0" /><path
         d="m 276.16254,141.0449 c 0.245,0 0.452,0.262 0.452,0.573 0,0.31 -0.207,0.573 -0.452,0.573 -0.244,0 -0.451,-0.263 -0.451,-0.573 0,-0.311 0.207,-0.573 0.451,-0.573"
         style="fill:#4db0e6;fill-opacity:1;fill-rule:nonzero;stroke:none;stroke-width:0.1"
         id="path594"
         inkscape:connector-curvature="0" /><path
         d="m 291.76054,126.7229 c 0,-0.961 0.725,-1.741 1.62,-1.741 0.895,0 1.62,0.78 1.62,1.741 0,0.962 -0.725,1.741 -1.62,1.741 -0.895,0 -1.62,-0.779 -1.62,-1.741"
         style="fill:#4db0e6;fill-opacity:1;fill-rule:nonzero;stroke:none;stroke-width:0.1"
         id="path596"
         inkscape:connector-curvature="0" /><path
         d="m 293.38054,126.1509 c 0.244,0 0.451,0.262 0.451,0.572 0,0.311 -0.207,0.573 -0.451,0.573 -0.245,0 -0.452,-0.262 -0.452,-0.573 0,-0.31 0.207,-0.572 0.452,-0.572"
         style="fill:#4db0e6;fill-opacity:1;fill-rule:nonzero;stroke:none;stroke-width:0.1"
         id="path598"
         inkscape:connector-curvature="0" /><path
         d="m 289.61954,115.7589 c 0,-0.9609 0.726,-1.741 1.62,-1.741 0.895,0 1.621,0.7801 1.621,1.741 0,0.9621 -0.726,1.7422 -1.621,1.7422 -0.894,0 -1.62,-0.7801 -1.62,-1.7422"
         style="fill:#4db0e6;fill-opacity:1;fill-rule:nonzero;stroke:none;stroke-width:0.1"
         id="path600"
         inkscape:connector-curvature="0" /><path
         d="m 291.23954,115.187 c 0.246,0 0.453,0.2629 0.453,0.5719 0,0.3121 -0.207,0.5738 -0.453,0.5738 -0.245,0 -0.452,-0.2617 -0.452,-0.5738 0,-0.309 0.207,-0.5719 0.452,-0.5719"
         style="fill:#4db0e6;fill-opacity:1;fill-rule:nonzero;stroke:none;stroke-width:0.1"
         id="path602"
         inkscape:connector-curvature="0" /><path
         d="m 285.96454,119.6069 c 0,-0.9621 0.726,-1.741 1.62,-1.741 0.895,0 1.62,0.7789 1.62,1.741 0,0.9622 -0.725,1.7411 -1.62,1.7411 -0.894,0 -1.62,-0.7789 -1.62,-1.7411"
         style="fill:#4db0e6;fill-opacity:1;fill-rule:nonzero;stroke:none;stroke-width:0.1"
         id="path604"
         inkscape:connector-curvature="0" /><path
         d="m 287.58454,119.0339 c 0.245,0 0.451,0.2621 0.451,0.573 0,0.311 -0.206,0.5731 -0.451,0.5731 -0.245,0 -0.452,-0.2621 -0.452,-0.5731 0,-0.3109 0.207,-0.573 0.452,-0.573"
         style="fill:#4db0e6;fill-opacity:1;fill-rule:nonzero;stroke:none;stroke-width:0.1"
         id="path606"
         inkscape:connector-curvature="0" /><path
         d="m 288.06154,112.2839 c 0,-0.9621 0.725,-1.741 1.62,-1.741 0.894,0 1.62,0.7789 1.62,1.741 0,0.9621 -0.726,1.741 -1.62,1.741 -0.895,0 -1.62,-0.7789 -1.62,-1.741"
         style="fill:#4db0e6;fill-opacity:1;fill-rule:nonzero;stroke:none;stroke-width:0.1"
         id="path608"
         inkscape:connector-curvature="0" /><path
         d="m 289.68154,111.7101 c 0.245,0 0.452,0.2629 0.452,0.5738 0,0.3102 -0.207,0.5719 -0.452,0.5719"
         style="fill:#4db0e6;fill-opacity:1;fill-rule:nonzero;stroke:none;stroke-width:0.1"
         id="path610"
         inkscape:connector-curvature="0" /><path
         d="m 279.07854,123.7519 c 0,-0.9621 0.726,-1.7418 1.62,-1.7418 0.895,0 1.621,0.7797 1.621,1.7418 0,0.961 -0.726,1.741 -1.621,1.741 -0.894,0 -1.62,-0.78 -1.62,-1.741"
         style="fill:#4db0e6;fill-opacity:1;fill-rule:nonzero;stroke:none;stroke-width:0.1"
         id="path612"
         inkscape:connector-curvature="0" /><path
         d="m 280.69854,123.178 c 0.245,0 0.452,0.2629 0.452,0.5739 0,0.31 -0.207,0.573 -0.452,0.573 -0.245,0 -0.452,-0.263 -0.452,-0.573 0,-0.311 0.207,-0.5739 0.452,-0.5739"
         style="fill:#4db0e6;fill-opacity:1;fill-rule:nonzero;stroke:none;stroke-width:0.1"
         id="path614"
         inkscape:connector-curvature="0" /><path
         d="m 278.50854,131.1339 c 0,-0.961 0.725,-1.741 1.62,-1.741 0.895,0 1.619,0.78 1.619,1.741 0,0.962 -0.724,1.742 -1.619,1.742 -0.895,0 -1.62,-0.78 -1.62,-1.742"
         style="fill:#4db0e6;fill-opacity:1;fill-rule:nonzero;stroke:none;stroke-width:0.1"
         id="path616"
         inkscape:connector-curvature="0" /><path
         d="m 280.12854,130.5619 c 0.244,0 0.451,0.262 0.451,0.572 0,0.312 -0.207,0.574 -0.451,0.574 -0.245,0 -0.452,-0.262 -0.452,-0.574 0,-0.31 0.207,-0.572 0.452,-0.572"
         style="fill:#4db0e6;fill-opacity:1;fill-rule:nonzero;stroke:none;stroke-width:0.1"
         id="path618"
         inkscape:connector-curvature="0" /><path
         d="m 268.00054,136.5539 c 0,-0.962 0.726,-1.741 1.62,-1.741 0.896,0 1.62,0.779 1.62,1.741 0,0.961 -0.724,1.741 -1.62,1.741 -0.894,0 -1.62,-0.78 -1.62,-1.741"
         style="fill:#4db0e6;fill-opacity:1;fill-rule:nonzero;stroke:none;stroke-width:0.1"
         id="path620"
         inkscape:connector-curvature="0" /><path
         d="m 269.62054,135.9809 c 0.245,0 0.452,0.262 0.452,0.573 0,0.311 -0.207,0.573 -0.452,0.573 -0.244,0 -0.451,-0.262 -0.451,-0.573 0,-0.311 0.207,-0.573 0.451,-0.573"
         style="fill:#4db0e6;fill-opacity:1;fill-rule:nonzero;stroke:none;stroke-width:0.1"
         id="path622"
         inkscape:connector-curvature="0" /><path
         d="m 263.72754,131.0209 c 0,-0.962 0.725,-1.741 1.62,-1.741 0.894,0 1.62,0.779 1.62,1.741 0,0.961 -0.726,1.741 -1.62,1.741 -0.895,0 -1.62,-0.78 -1.62,-1.741"
         style="fill:#4db0e6;fill-opacity:1;fill-rule:nonzero;stroke:none;stroke-width:0.1"
         id="path624"
         inkscape:connector-curvature="0" /><path
         d="m 265.34754,130.4479 c 0.245,0 0.452,0.262 0.452,0.573 0,0.311 -0.207,0.572 -0.452,0.572 -0.245,0 -0.452,-0.261 -0.452,-0.572 0,-0.311 0.207,-0.573 0.452,-0.573"
         style="fill:#4db0e6;fill-opacity:1;fill-rule:nonzero;stroke:none;stroke-width:0.1"
         id="path626"
         inkscape:connector-curvature="0" /><g
         transform="matrix(0.1,0,0,0.1,-3.7474578,23.7339)"
         id="g628"><g
           id="g630"
           clip-path="url(#clipPath634)"><path
             d="m 3419.19,1794.2 -77.65,-45.42 62.25,-25.91 -1.13,-2.7 -67.68,28.17 78.96,46.18 -79.65,60.59 1.78,2.33 83.12,-63.24"
             style="fill:#ffffff;fill-opacity:1;fill-rule:nonzero;stroke:none"
             id="path636"
             inkscape:connector-curvature="0" /><path
             d="m 3653.23,1361.09 80.5,70.08 -67.11,-1.69 z m 88.56,73.22 -93.07,-81.04 14.9,76.13 -95.58,-2.41 39.92,-103.4 -103.82,-21.85 71.03,-66.75 -95.91,-27.25 46.98,-85.29 -78.92,-65.74 -27.32,87.72 -114.91,-48.03 -1.12,2.7 117.87,49.28 26.97,-86.61 73.7,61.38 -47.6,86.4 94.49,26.85 -71.35,67.06 105.95,22.29 -40.19,104.06 100.39,2.53 7.86,40.19 -78.33,45.94 -114,-63.91 48.25,97.72 -86.63,-13.19 58.33,57.36 -55.41,19.37 -60.34,-88.08 12.8,101.9 -79.91,15.7 86.7,78.41 40.73,-62.64 32.15,76.43 58.05,-27.81 -1.27,-2.64 -55.27,26.48 -33.1,-78.69 -41.88,64.4 -79.81,-72.2 76.86,-15.09 -11.64,-92.63 54.79,79.97 61.95,-21.67 -55.23,-54.32 83.24,12.68 -46.56,-94.29 107.24,60.12 81.57,-47.85 -8.14,-41.58 74.59,1.89"
             style="fill:#ffffff;fill-opacity:1;fill-rule:nonzero;stroke:none"
             id="path638"
             inkscape:connector-curvature="0" /><path
             d="m 3516.32,1320.51 c 9.89,-8.41 11.09,-23.25 2.69,-33.14 -8.41,-9.89 -23.25,-11.09 -33.15,-2.68 -9.88,8.41 -11.08,23.25 -2.68,33.14 8.41,9.88 23.25,11.09 33.14,2.68"
             style="fill:#ffffff;fill-opacity:1;fill-rule:nonzero;stroke:none"
             id="path640"
             inkscape:connector-curvature="0" /><path
             d="m 3619.49,1340.56 c 8.77,-7.46 9.84,-20.63 2.38,-29.4 -7.46,-8.77 -20.62,-9.84 -29.4,-2.38 -8.78,7.47 -9.84,20.62 -2.38,29.4 7.47,8.77 20.62,9.85 29.4,2.38"
             style="fill:#ffffff;fill-opacity:1;fill-rule:nonzero;stroke:none"
             id="path642"
             inkscape:connector-curvature="0" /><path
             d="m 3541.68,1567.26 c 7.24,-6.15 8.13,-17.01 1.96,-24.25 -6.16,-7.24 -17.02,-8.13 -24.25,-1.97 -7.24,6.16 -8.12,17.03 -1.97,24.26 6.16,7.24 17.01,8.12 24.26,1.96"
             style="fill:#ffffff;fill-opacity:1;fill-rule:nonzero;stroke:none"
             id="path644"
             inkscape:connector-curvature="0" /><path
             d="m 3456.75,1554.33 c 7.25,-6.16 8.12,-17.02 1.96,-24.26 -6.15,-7.24 -17.01,-8.12 -24.26,-1.97 -7.23,6.16 -8.11,17.03 -1.96,24.26 6.16,7.24 17.02,8.13 24.26,1.97"
             style="fill:#ffffff;fill-opacity:1;fill-rule:nonzero;stroke:none"
             id="path646"
             inkscape:connector-curvature="0" /><path
             d="m 3406.88,1641.03 c 7.23,-6.15 8.12,-17.01 1.96,-24.25 -6.15,-7.24 -17.01,-8.12 -24.26,-1.97 -7.24,6.16 -8.11,17.03 -1.95,24.27 6.15,7.23 17.01,8.11 24.25,1.95"
             style="fill:#ffffff;fill-opacity:1;fill-rule:nonzero;stroke:none"
             id="path648"
             inkscape:connector-curvature="0" /><path
             d="m 3414.38,1734.63 c 7.23,-6.16 8.11,-17.02 1.95,-24.26 -6.15,-7.24 -17.01,-8.11 -24.25,-1.96 -7.24,6.15 -8.12,17.02 -1.97,24.26 6.16,7.24 17.02,8.12 24.27,1.96"
             style="fill:#ffffff;fill-opacity:1;fill-rule:nonzero;stroke:none"
             id="path650"
             inkscape:connector-curvature="0" /><path
             d="m 3346.32,1869.39 c 7.25,-6.16 8.12,-17.02 1.96,-24.26 -6.15,-7.24 -17.01,-8.12 -24.25,-1.96 -7.24,6.16 -8.12,17.01 -1.96,24.26 6.15,7.24 17.01,8.12 24.25,1.96"
             style="fill:#ffffff;fill-opacity:1;fill-rule:nonzero;stroke:none"
             id="path652"
             inkscape:connector-curvature="0" /><path
             d="m 3483.56,1221.25 c 6.59,-5.61 7.39,-15.49 1.78,-22.07 -5.6,-6.59 -15.49,-7.39 -22.08,-1.8 -6.59,5.61 -7.38,15.49 -1.77,22.08 5.59,6.59 15.47,7.39 22.07,1.79"
             style="fill:#ffffff;fill-opacity:1;fill-rule:nonzero;stroke:none"
             id="path654"
             inkscape:connector-curvature="0" /><path
             d="m 3536.48,1137.03 c 7.86,-6.68 8.8,-18.47 2.12,-26.32 -6.67,-7.86 -18.46,-8.81 -26.31,-2.13 -7.86,6.68 -8.81,18.47 -2.14,26.32 6.69,7.86 18.46,8.81 26.33,2.13"
             style="fill:#ffffff;fill-opacity:1;fill-rule:nonzero;stroke:none"
             id="path656"
             inkscape:connector-curvature="0" /><path
             d="m 3431.24,1158.53 c 6.7,-5.69 7.5,-15.74 1.81,-22.44 -5.7,-6.7 -15.74,-7.51 -22.44,-1.81 -6.7,5.69 -7.51,15.74 -1.82,22.44 5.69,6.7 15.75,7.52 22.45,1.81"
             style="fill:#ffffff;fill-opacity:1;fill-rule:nonzero;stroke:none"
             id="path658"
             inkscape:connector-curvature="0" /><path
             d="m 3578.85,1443.6 c 8.4,-7.14 9.41,-19.72 2.27,-28.12 -7.13,-8.4 -19.72,-9.42 -28.12,-2.28 -8.4,7.14 -9.41,19.73 -2.28,28.13 7.14,8.4 19.74,9.42 28.13,2.27"
             style="fill:#ffffff;fill-opacity:1;fill-rule:nonzero;stroke:none"
             id="path660"
             inkscape:connector-curvature="0" /><path
             d="m 3398.17,1555.5 c 9.44,-8.03 10.58,-22.18 2.55,-31.61 -8.01,-9.44 -22.16,-10.59 -31.61,-2.56 -9.43,8.02 -10.57,22.18 -2.56,31.61 8.03,9.44 22.18,10.58 31.62,2.56"
             style="fill:#ffffff;fill-opacity:1;fill-rule:nonzero;stroke:none"
             id="path662"
             inkscape:connector-curvature="0" /><path
             d="m 3495.23,1472.37 c 7.86,-6.68 8.81,-18.46 2.12,-26.32 -6.67,-7.86 -18.45,-8.8 -26.31,-2.12 -7.86,6.67 -8.81,18.46 -2.13,26.31 6.68,7.86 18.46,8.81 26.32,2.13"
             style="fill:#ffffff;fill-opacity:1;fill-rule:nonzero;stroke:none"
             id="path664"
             inkscape:connector-curvature="0" /><path
             d="m 3505.75,1603.84 c 4.99,-4.25 5.6,-11.75 1.35,-16.75 -4.25,-4.99 -11.75,-5.6 -16.74,-1.34 -5,4.24 -5.6,11.74 -1.35,16.73 4.24,5 11.73,5.6 16.74,1.36"
             style="fill:#ffffff;fill-opacity:1;fill-rule:nonzero;stroke:none"
             id="path666"
             inkscape:connector-curvature="0" /><path
             d="m 3484.84,1754.6 c 5,-4.25 5.61,-11.74 1.36,-16.74 -4.25,-5 -11.74,-5.6 -16.74,-1.35 -5,4.25 -5.6,11.74 -1.35,16.74 4.24,4.99 11.74,5.6 16.73,1.35"
             style="fill:#ffffff;fill-opacity:1;fill-rule:nonzero;stroke:none"
             id="path668"
             inkscape:connector-curvature="0" /><path
             d="m 3450.26,1625.3 c 4.27,-3.64 4.79,-10.03 1.16,-14.29 -3.63,-4.27 -10.02,-4.79 -14.28,-1.16 -4.27,3.63 -4.79,10.03 -1.16,14.29 3.62,4.26 10.03,4.78 14.28,1.16"
             style="fill:#ffffff;fill-opacity:1;fill-rule:nonzero;stroke:none"
             id="path670"
             inkscape:connector-curvature="0" /><path
             d="m 3543.43,1719.71 c 6.24,-5.31 6.99,-14.67 1.68,-20.91 -5.29,-6.24 -14.66,-7 -20.9,-1.69 -6.24,5.31 -6.99,14.67 -1.69,20.9 5.3,6.24 14.66,7 20.91,1.7"
             style="fill:#ffffff;fill-opacity:1;fill-rule:nonzero;stroke:none"
             id="path672"
             inkscape:connector-curvature="0" /><path
             d="m 3345.96,1757.61 c 5,-4.26 5.6,-11.75 1.35,-16.75 -4.25,-4.99 -11.74,-5.6 -16.74,-1.35 -4.99,4.25 -5.6,11.75 -1.36,16.74 4.26,5 11.75,5.6 16.75,1.36"
             style="fill:#ffffff;fill-opacity:1;fill-rule:nonzero;stroke:none"
             id="path674"
             inkscape:connector-curvature="0" /><path
             d="m 3452.22,1667.04 c 5,-4.25 5.6,-11.74 1.36,-16.74 -4.25,-4.99 -11.74,-5.6 -16.74,-1.35 -5,4.25 -5.61,11.74 -1.36,16.74 4.25,5 11.75,5.6 16.74,1.35"
             style="fill:#ffffff;fill-opacity:1;fill-rule:nonzero;stroke:none"
             id="path676"
             inkscape:connector-curvature="0" /><path
             d="m 3583.96,1249.43 c 7.58,-6.45 8.5,-17.83 2.05,-25.42 -6.45,-7.58 -17.83,-8.5 -25.41,-2.05 -7.59,6.46 -8.51,17.83 -2.05,25.41 6.44,7.59 17.82,8.51 25.41,2.06"
             style="fill:#ffffff;fill-opacity:1;fill-rule:nonzero;stroke:none"
             id="path678"
             inkscape:connector-curvature="0" /><path
             d="m 3458.38,1071.37 c 6.7,-5.7 7.51,-15.75 1.82,-22.44 -5.71,-6.7 -15.76,-7.51 -22.45,-1.82 -6.7,5.7 -7.51,15.75 -1.82,22.45 5.69,6.7 15.75,7.51 22.45,1.81"
             style="fill:#ffffff;fill-opacity:1;fill-rule:nonzero;stroke:none"
             id="path680"
             inkscape:connector-curvature="0" /><path
             d="m 3331.93,1119.46 c 12.17,-10.35 13.64,-28.6 3.3,-40.77 -10.36,-12.17 -28.61,-13.65 -40.78,-3.3 -12.16,10.35 -13.64,28.6 -3.3,40.77 10.36,12.17 28.61,13.65 40.78,3.3"
             style="fill:#ffffff;fill-opacity:1;fill-rule:nonzero;stroke:none"
             id="path682"
             inkscape:connector-curvature="0" /><path
             d="m 3610.49,1539.84 c 10.86,-9.24 12.19,-25.54 2.94,-36.41 -9.24,-10.87 -25.54,-12.19 -36.41,-2.95 -10.87,9.25 -12.19,25.55 -2.95,36.41 9.24,10.87 25.55,12.19 36.42,2.95"
             style="fill:#ffffff;fill-opacity:1;fill-rule:nonzero;stroke:none"
             id="path684"
             inkscape:connector-curvature="0" /><path
             d="m 3337.04,1666.29 c 11.1,-9.43 12.43,-26.07 3,-37.16 -9.42,-11.09 -26.06,-12.43 -37.15,-3 -11.09,9.43 -12.44,26.07 -3.01,37.16 9.43,11.08 26.07,12.44 37.16,3"
             style="fill:#ffffff;fill-opacity:1;fill-rule:nonzero;stroke:none"
             id="path686"
             inkscape:connector-curvature="0" /><path
             d="m 3430.16,1818.77 c 11.09,-9.43 12.44,-26.07 3.01,-37.16 -9.44,-11.1 -26.07,-12.44 -37.16,-3.01 -11.1,9.43 -12.44,26.07 -3.01,37.16 9.43,11.09 26.07,12.44 37.16,3.01"
             style="fill:#ffffff;fill-opacity:1;fill-rule:nonzero;stroke:none"
             id="path688"
             inkscape:connector-curvature="0" /><path
             d="m 3217.19,922.531 -68.22,61.129 21.61,-144.012 z m 470.18,151.669 -34.22,-107.841 97.73,29.032 20.66,-158.18 -96.88,54.41 -76.88,-117.172 15.25,144.891 -74.69,28.89 9.84,-111.191 -78.32,90.359 -36.35,-144.199 -61.86,167.27 -122.03,21.59 -27.38,-48.7 102.04,-91.461 -133.83,-72.546 90.33,-116.911 -133.44,-6.511 74.37,-111.489 -125.89,-47.609 22.24,-128.992 104.66,66.09 78.83,-155.481 -3.56,-1.82 -76.86,151.582 -105.99,-66.949 -23.81,138.129 124.27,47.019 -75.5,113.172 132.83,6.477 -88.51,114.57 132.97,72.082 -97.15,87.078 -51.89,-92.25 -24.98,166.512 75.82,-67.961 28.34,50.39 127.07,-22.468 58.18,-157.332 35.08,139.129 75.25,-86.821 -9.31,105.293 83.53,-32.32 -0.16,-1.52 -13.69,-130.011 69.88,106.5 93.19,-52.328 -19.02,145.617 -100.48,-29.84 35.25,111.031 -80.85,21.4 1.01,3.87 84.91,-22.48"
             style="fill:#ffffff;fill-opacity:1;fill-rule:nonzero;stroke:none"
             id="path690"
             inkscape:connector-curvature="0" /><path
             d="m 3468.89,955.09 c -12.97,0.012 -23.5,-10.488 -23.5,-23.461 -0.02,-12.969 10.49,-23.5 23.46,-23.508 12.97,-0.012 23.49,10.5 23.49,23.457 0.02,12.981 -10.47,23.504 -23.45,23.512"
             style="fill:#ffffff;fill-opacity:1;fill-rule:nonzero;stroke:none"
             id="path692"
             inkscape:connector-curvature="0" /><path
             d="m 3545.66,866.5 c -12.96,0.012 -23.49,-10.488 -23.5,-23.461 -0.02,-12.957 10.49,-23.488 23.46,-23.508 12.97,-0.011 23.49,10.5 23.5,23.469 0.01,12.969 -10.49,23.488 -23.46,23.5"
             style="fill:#ffffff;fill-opacity:1;fill-rule:nonzero;stroke:none"
             id="path694"
             inkscape:connector-curvature="0" /><path
             d="m 3320.86,859.539 c -15.04,0.012 -27.25,-12.18 -27.26,-27.219 -0.01,-15.031 12.17,-27.218 27.21,-27.238 15.04,-0.023 27.24,12.156 27.25,27.188 0.02,15.05 -12.16,27.25 -27.2,27.269"
             style="fill:#ffffff;fill-opacity:1;fill-rule:nonzero;stroke:none"
             id="path696"
             inkscape:connector-curvature="0" /><path
             d="m 3146.18,1007.84 c -10.49,0.01 -18.98,-8.481 -19,-18.961 -0.01,-10.488 8.49,-19 18.97,-19.008 10.49,-0.012 19,8.488 19.01,18.969 0,10.492 -8.49,19 -18.98,19"
             style="fill:#ffffff;fill-opacity:1;fill-rule:nonzero;stroke:none"
             id="path698"
             inkscape:connector-curvature="0" /><path
             d="m 3169.47,849.789 c -8.95,0.012 -16.21,-7.238 -16.22,-16.199 -0.01,-8.93 7.24,-16.211 16.19,-16.211 8.95,-0.008 16.22,7.242 16.23,16.191 0.01,8.961 -7.25,16.211 -16.2,16.219"
             style="fill:#ffffff;fill-opacity:1;fill-rule:nonzero;stroke:none"
             id="path700"
             inkscape:connector-curvature="0" /><path
             d="m 3248.59,990.488 c -8.95,0 -16.22,-7.25 -16.22,-16.199 -0.02,-8.949 7.24,-16.207 16.19,-16.207 8.95,-0.023 16.22,7.227 16.22,16.18 0.01,8.949 -7.25,16.207 -16.19,16.226"
             style="fill:#ffffff;fill-opacity:1;fill-rule:nonzero;stroke:none"
             id="path702"
             inkscape:connector-curvature="0" /><path
             d="m 3538.58,961.289 c -8.95,0 -16.22,-7.25 -16.23,-16.199 0,-8.942 7.25,-16.199 16.21,-16.211 8.93,-0.008 16.2,7.242 16.21,16.18 0.01,8.953 -7.24,16.211 -16.19,16.23"
             style="fill:#ffffff;fill-opacity:1;fill-rule:nonzero;stroke:none"
             id="path704"
             inkscape:connector-curvature="0" /><path
             d="m 3601.96,1114.98 c -11.17,0.01 -20.23,-9.04 -20.25,-20.22 -0.01,-11.17 9.04,-20.25 20.22,-20.25 11.19,-0.01 20.25,9.04 20.26,20.21 0.02,11.18 -9.04,20.25 -20.23,20.26"
             style="fill:#ffffff;fill-opacity:1;fill-rule:nonzero;stroke:none"
             id="path706"
             inkscape:connector-curvature="0" /><path
             d="m 3373.16,987.488 c -19.48,0.012 -35.27,-15.758 -35.29,-35.226 -0.02,-19.453 15.75,-35.25 35.22,-35.274 19.47,-0.008 35.27,15.75 35.28,35.223 0.02,19.461 -15.74,35.258 -35.21,35.277"
             style="fill:#ffffff;fill-opacity:1;fill-rule:nonzero;stroke:none"
             id="path708"
             inkscape:connector-curvature="0" /><path
             d="m 3100.65,2554.01 -68.22,61.15 21.6,-144.03 z m 470.19,151.67 -34.24,-107.83 97.75,29.03 20.66,-158.18 -96.89,54.41 -76.88,-117.17 15.26,144.88 -74.69,28.91 9.82,-111.2 -78.3,90.36 -36.36,-144.2 -61.86,167.27 -122.02,21.59 -27.39,-48.7 102.05,-91.46 -133.83,-72.54 90.32,-116.92 -133.45,-6.51 74.39,-111.48 -125.89,-47.63 22.23,-128.99 104.66,66.11 78.83,-155.5 -3.56,-1.81 -76.85,151.58 -106,-66.95 -23.81,138.13 124.27,47.02 -75.5,113.17 132.84,6.48 -88.52,114.58 132.97,72.07 -97.16,87.08 -51.88,-92.26 -24.97,166.52 75.82,-67.96 28.34,50.4 127.07,-22.48 58.18,-157.33 35.08,139.13 75.23,-86.82 -9.3,105.29 83.53,-32.32 -0.16,-1.52 -13.69,-130.01 69.88,106.5 93.19,-52.33 -19.02,145.62 -100.47,-29.84 35.24,111.02 -80.86,21.41 1.03,3.86 84.91,-22.48"
             style="fill:#ffffff;fill-opacity:1;fill-rule:nonzero;stroke:none"
             id="path710"
             inkscape:connector-curvature="0" /><path
             d="m 3105.4,2064.29 c -11.99,0.01 -21.73,-9.71 -21.74,-21.71 -0.01,-11.99 9.71,-21.72 21.71,-21.74 11.99,-0.01 21.73,9.71 21.75,21.7 0.01,12 -9.72,21.75 -21.72,21.75"
             style="fill:#ffffff;fill-opacity:1;fill-rule:nonzero;stroke:none"
             id="path712"
             inkscape:connector-curvature="0" /><path
             d="m 3173.99,1935.83 c -21.81,0.02 -39.49,-17.64 -39.51,-39.43 -0.03,-21.8 17.63,-39.49 39.43,-39.51 21.8,-0.02 39.49,17.64 39.51,39.43 0.02,21.79 -17.64,39.49 -39.43,39.51"
             style="fill:#ffffff;fill-opacity:1;fill-rule:nonzero;stroke:none"
             id="path714"
             inkscape:connector-curvature="0" /><path
             d="m 3193.72,1751.32 90.16,-57.13 -20.79,63.84 z m 95.46,-63.95 -104.23,66.04 77.21,7.47 -29.62,90.92 -87.69,-67.81 -50.6,93.25 -43.67,-87.12 -53.52,84.11 -68.31,-69.39 -85.55,56.86 76.26,51.24 -78.86,96.38 2.26,1.86 80.91,-98.88 -75.29,-50.59 79.88,-53.09 69.19,70.29 52.72,-82.86 43.88,87.52 51.63,-95.16 88.25,68.24 31.11,-95.48 40.76,3.95 21.65,88.18 -93.83,91 107.43,-18.32 -37.39,79.25 71.64,-39.5 2.74,58.62 -101.65,32.67 101.3,16.84 -7.79,81.07 99.93,-60.68 -48.4,-56.94 82.43,-8.97 -10.07,-63.57 -2.89,0.45 9.59,60.54 -84.88,9.24 49.76,58.53 -91.99,55.86 7.5,-77.97 -92.1,-15.31 92.28,-29.66 -3.05,-65.56 -67.84,37.41 35.93,-76.15 -103.65,17.67 88.25,-85.58 -22.56,-91.84 -42.17,-4.09 23.11,-70.94"
             style="fill:#ffffff;fill-opacity:1;fill-rule:nonzero;stroke:none"
             id="path716"
             inkscape:connector-curvature="0" /><path
             d="m 3115.71,1870.93 c -5.23,-11.88 -19.11,-17.27 -30.99,-12.04 -11.88,5.24 -17.27,19.11 -12.03,30.99 5.23,11.89 19.1,17.27 30.99,12.04 11.88,-5.23 17.27,-19.11 12.03,-30.99"
             style="fill:#ffffff;fill-opacity:1;fill-rule:nonzero;stroke:none"
             id="path718"
             inkscape:connector-curvature="0" /><path
             d="m 3164.41,1777.79 c -4.64,-10.54 -16.96,-15.32 -27.49,-10.68 -10.54,4.64 -15.33,16.96 -10.69,27.5 4.65,10.54 16.95,15.33 27.5,10.68 10.54,-4.65 15.32,-16.96 10.68,-27.5"
             style="fill:#ffffff;fill-opacity:1;fill-rule:nonzero;stroke:none"
             id="path720"
             inkscape:connector-curvature="0" /><path
             d="m 3359.43,1917.13 c -3.83,-8.7 -13.99,-12.64 -22.68,-8.82 -8.7,3.84 -12.65,14 -8.82,22.7 3.84,8.69 14,12.64 22.69,8.81 8.7,-3.83 12.64,-13.99 8.81,-22.69"
             style="fill:#ffffff;fill-opacity:1;fill-rule:nonzero;stroke:none"
             id="path722"
             inkscape:connector-curvature="0" /><path
             d="m 3322.76,1994.82 c -3.82,-8.69 -13.98,-12.64 -22.67,-8.8 -8.7,3.82 -12.65,13.98 -8.82,22.68 3.83,8.7 13.99,12.64 22.69,8.81 8.7,-3.83 12.64,-13.99 8.8,-22.69"
             style="fill:#ffffff;fill-opacity:1;fill-rule:nonzero;stroke:none"
             id="path724"
             inkscape:connector-curvature="0" /><path
             d="m 3391.61,2067.39 c -3.84,-8.69 -13.98,-12.64 -22.68,-8.81 -8.69,3.83 -12.65,13.99 -8.81,22.69 3.83,8.69 13.98,12.64 22.68,8.81 8.71,-3.83 12.64,-13.99 8.81,-22.69"
             style="fill:#ffffff;fill-opacity:1;fill-rule:nonzero;stroke:none"
             id="path726"
             inkscape:connector-curvature="0" /><path
             d="m 3251.55,1846.18 c -4.44,-10.09 -16.23,-14.66 -26.3,-10.22 -10.09,4.44 -14.67,16.22 -10.23,26.31 4.44,10.08 16.23,14.66 26.31,10.21 10.09,-4.44 14.67,-16.21 10.22,-26.3"
             style="fill:#ffffff;fill-opacity:1;fill-rule:nonzero;stroke:none"
             id="path728"
             inkscape:connector-curvature="0" /><path
             d="m 3307.15,2051.3 c -4.99,-11.34 -18.22,-16.48 -29.56,-11.49 -11.33,5 -16.48,18.24 -11.49,29.57 5,11.34 18.24,16.48 29.58,11.48 11.32,-4.99 16.47,-18.22 11.47,-29.56"
             style="fill:#ffffff;fill-opacity:1;fill-rule:nonzero;stroke:none"
             id="path730"
             inkscape:connector-curvature="0" /><path
             d="m 3255.23,1934.54 c -4.16,-9.44 -15.19,-13.72 -24.62,-9.57 -9.44,4.16 -13.71,15.19 -9.55,24.62 4.15,9.43 15.16,13.72 24.6,9.57 9.44,-4.16 13.73,-15.19 9.57,-24.62"
             style="fill:#ffffff;fill-opacity:1;fill-rule:nonzero;stroke:none"
             id="path732"
             inkscape:connector-curvature="0" /><path
             d="m 3299.26,1685.18 c -3.1,-7.04 -11.3,-10.22 -18.34,-7.13 -7.02,3.1 -10.22,11.31 -7.12,18.34 3.1,7.04 11.31,10.23 18.34,7.13 7.03,-3.1 10.22,-11.31 7.12,-18.34"
             style="fill:#ffffff;fill-opacity:1;fill-rule:nonzero;stroke:none"
             id="path734"
             inkscape:connector-curvature="0" /><path
             d="m 3200.2,1747.58 c -2.64,-6.01 -9.65,-8.73 -15.66,-6.09 -5.99,2.65 -8.72,9.66 -6.08,15.66 2.64,6 9.66,8.73 15.66,6.08 6,-2.64 8.72,-9.65 6.08,-15.65"
             style="fill:#ffffff;fill-opacity:1;fill-rule:nonzero;stroke:none"
             id="path736"
             inkscape:connector-curvature="0" /><path
             d="m 3317.94,1758.97 c -2.65,-6.01 -9.66,-8.73 -15.65,-6.08 -6.01,2.64 -8.73,9.65 -6.09,15.65 2.65,6 9.66,8.72 15.66,6.08 6,-2.64 8.72,-9.65 6.08,-15.65"
             style="fill:#ffffff;fill-opacity:1;fill-rule:nonzero;stroke:none"
             id="path738"
             inkscape:connector-curvature="0" /><path
             d="m 3384.21,1962.02 c -2.65,-6 -9.65,-8.72 -15.65,-6.08 -6,2.64 -8.72,9.65 -6.08,15.65 2.64,6 9.65,8.73 15.66,6.08 5.99,-2.64 8.72,-9.65 6.07,-15.65"
             style="fill:#ffffff;fill-opacity:1;fill-rule:nonzero;stroke:none"
             id="path740"
             inkscape:connector-curvature="0" /><path
             d="m 3513.14,2022.26 c -2.65,-6 -9.66,-8.72 -15.66,-6.08 -5.99,2.65 -8.73,9.66 -6.08,15.66 2.64,6 9.66,8.72 15.66,6.07 5.99,-2.64 8.72,-9.65 6.08,-15.65"
             style="fill:#ffffff;fill-opacity:1;fill-rule:nonzero;stroke:none"
             id="path742"
             inkscape:connector-curvature="0" /><path
             d="m 3388.92,2021.31 c -2.25,-5.12 -8.24,-7.44 -13.35,-5.19 -5.13,2.26 -7.45,8.24 -5.2,13.37 2.26,5.12 8.24,7.44 13.36,5.19 5.13,-2.26 7.45,-8.25 5.19,-13.37"
             style="fill:#ffffff;fill-opacity:1;fill-rule:nonzero;stroke:none"
             id="path744"
             inkscape:connector-curvature="0" /><path
             d="m 3506.02,1959.01 c -3.3,-7.49 -12.06,-10.89 -19.56,-7.58 -7.49,3.29 -10.89,12.05 -7.59,19.54 3.3,7.5 12.06,10.9 19.56,7.6 7.49,-3.31 10.89,-12.06 7.59,-19.56"
             style="fill:#ffffff;fill-opacity:1;fill-rule:nonzero;stroke:none"
             id="path746"
             inkscape:connector-curvature="0" /><path
             d="m 3429.49,2031.37 c -2.64,-6 -9.65,-8.73 -15.65,-6.08 -6.01,2.64 -8.73,9.65 -6.08,15.66 2.64,6 9.65,8.72 15.65,6.08 6.01,-2.65 8.72,-9.66 6.08,-15.66"
             style="fill:#ffffff;fill-opacity:1;fill-rule:nonzero;stroke:none"
             id="path748"
             inkscape:connector-curvature="0" /><path
             d="m 3066.93,1785.81 c -4.02,-9.11 -14.66,-13.24 -23.77,-9.23 -9.12,4.02 -13.25,14.65 -9.23,23.77 4.01,9.11 14.66,13.24 23.77,9.23 9.11,-4.02 13.24,-14.65 9.23,-23.77"
             style="fill:#ffffff;fill-opacity:1;fill-rule:nonzero;stroke:none"
             id="path750"
             inkscape:connector-curvature="0" /><path
             d="m 3352.81,1843.36 c -5.76,-13.06 -21,-18.98 -34.06,-13.23 -13.06,5.76 -18.97,21 -13.22,34.06 5.75,13.05 20.99,18.97 34.05,13.22 13.06,-5.75 18.99,-20.99 13.23,-34.05"
             style="fill:#ffffff;fill-opacity:1;fill-rule:nonzero;stroke:none"
             id="path752"
             inkscape:connector-curvature="0" /><path
             d="m 3170.31,1655.57 -91.38,-18.82 52.55,-46.14 -2.01,-2.28 -57.13,50.17 92.92,19.13 -58.13,86.01 2.52,1.7 60.66,-89.77"
             style="fill:#ffffff;fill-opacity:1;fill-rule:nonzero;stroke:none"
             id="path754"
             inkscape:connector-curvature="0" /><path
             d="m 3256.37,1152.25 102.37,42.1 -66.5,20.64 z m 111.33,42.5 -118.36,-48.69 39.93,69.86 -94.72,29.39 4.88,-114.86 -109.28,13.03 47.61,-89.17 -103.3,5.07 17.84,-99.4 -99.42,-38.371 2.33,95.261 -128.86,-9.02 -0.22,3.04 132.2,9.26 -2.29,-94.072 92.82,35.82 -18.06,100.712 101.75,-5.01 -47.82,89.59 111.5,-13.3 -4.9,115.6 99.48,-30.88 21.08,36.88 -61.69,71.17 -133.26,-24.92 79.88,79.99 -89.5,15.82 76.36,36.98 -47.99,37.44 -88.56,-66.49 46.44,95.88 -73.32,41.96 111.26,48.25 19.2,-75.09 56.99,64.41 47.79,-46.62 -2.12,-2.17 -45.51,44.39 -58.67,-66.32 -19.75,77.2 -102.42,-44.42 70.52,-40.37 -42.22,-87.14 80.4,60.36 53.69,-41.87 -72.32,-35.02 86,-15.21 -77.07,-77.18 125.34,23.45 64.24,-74.12 -21.82,-38.16 73.92,-22.94"
             style="fill:#ffffff;fill-opacity:1;fill-rule:nonzero;stroke:none"
             id="path756"
             inkscape:connector-curvature="0" /><path
             d="m 3108.35,1157.87 c 6.92,-11.54 3.17,-26.53 -8.38,-33.45 -11.54,-6.93 -26.52,-3.17 -33.44,8.37 -6.93,11.56 -3.18,26.54 8.37,33.45 11.55,6.93 26.53,3.18 33.45,-8.37"
             style="fill:#ffffff;fill-opacity:1;fill-rule:nonzero;stroke:none"
             id="path758"
             inkscape:connector-curvature="0" /><path
             d="m 3216.38,1143.29 c 6.15,-10.24 2.82,-23.53 -7.43,-29.68 -10.24,-6.13 -23.54,-2.81 -29.67,7.43 -6.15,10.26 -2.82,23.55 7.42,29.69 10.25,6.13 23.54,2.8 29.68,-7.44"
             style="fill:#ffffff;fill-opacity:1;fill-rule:nonzero;stroke:none"
             id="path760"
             inkscape:connector-curvature="0" /><path
             d="m 3215.26,1391.89 c 5.06,-8.45 2.32,-19.41 -6.13,-24.48 -8.45,-5.07 -19.42,-2.32 -24.49,6.13 -5.07,8.46 -2.31,19.42 6.12,24.49 8.47,5.07 19.43,2.32 24.5,-6.14"
             style="fill:#ffffff;fill-opacity:1;fill-rule:nonzero;stroke:none"
             id="path762"
             inkscape:connector-curvature="0" /><path
             d="m 3127.51,1407.4 c 5.07,-8.46 2.33,-19.42 -6.12,-24.48 -8.46,-5.07 -19.43,-2.32 -24.49,6.12 -5.07,8.47 -2.33,19.44 6.13,24.49 8.47,5.07 19.41,2.33 24.48,-6.13"
             style="fill:#ffffff;fill-opacity:1;fill-rule:nonzero;stroke:none"
             id="path764"
             inkscape:connector-curvature="0" /><path
             d="m 3107.33,1509.17 c 5.05,-8.46 2.32,-19.41 -6.14,-24.48 -8.45,-5.07 -19.42,-2.33 -24.49,6.12 -5.06,8.46 -2.32,19.42 6.14,24.49 8.45,5.07 19.41,2.32 24.49,-6.13"
             style="fill:#ffffff;fill-opacity:1;fill-rule:nonzero;stroke:none"
             id="path766"
             inkscape:connector-curvature="0" /><path
             d="m 3145.78,1598.65 c 5.07,-8.46 2.33,-19.43 -6.13,-24.5 -8.45,-5.06 -19.41,-2.32 -24.48,6.14 -5.07,8.45 -2.33,19.41 6.13,24.49 8.46,5.06 19.42,2.32 24.48,-6.13"
             style="fill:#ffffff;fill-opacity:1;fill-rule:nonzero;stroke:none"
             id="path768"
             inkscape:connector-curvature="0" /><path
             d="m 3123.7,1753.66 c 5.07,-8.46 2.33,-19.41 -6.13,-24.49 -8.46,-5.06 -19.41,-2.32 -24.48,6.14 -5.08,8.45 -2.33,19.42 6.13,24.48 8.46,5.07 19.41,2.33 24.48,-6.13"
             style="fill:#ffffff;fill-opacity:1;fill-rule:nonzero;stroke:none"
             id="path770"
             inkscape:connector-curvature="0" /><path
             d="m 3043.18,1071.23 c 4.6,-7.69 2.1,-17.67 -5.59,-22.29 -7.69,-4.6 -17.67,-2.1 -22.29,5.59 -4.61,7.7 -2.12,17.67 5.59,22.29 7.7,4.61 17.68,2.11 22.29,-5.59"
             style="fill:#ffffff;fill-opacity:1;fill-rule:nonzero;stroke:none"
             id="path772"
             inkscape:connector-curvature="0" /><path
             d="m 3067.19,970.91 c 5.5,-9.18 2.52,-21.082 -6.66,-26.57 -9.17,-5.5 -21.07,-2.52 -26.56,6.648 -5.51,9.184 -2.52,21.071 6.65,26.571 9.17,5.5 21.06,2.523 26.57,-6.649"
             style="fill:#ffffff;fill-opacity:1;fill-rule:nonzero;stroke:none"
             id="path774"
             inkscape:connector-curvature="0" /><path
             d="m 3210.69,1258.05 c 5.89,-9.81 2.69,-22.52 -7.11,-28.4 -9.8,-5.87 -22.51,-2.7 -28.39,7.11 -5.88,9.81 -2.7,22.52 7.11,28.4 9.8,5.87 22.52,2.7 28.39,-7.11"
             style="fill:#ffffff;fill-opacity:1;fill-rule:nonzero;stroke:none"
             id="path776"
             inkscape:connector-curvature="0" /><path
             d="m 3070.34,1428.02 c 6.6,-11.03 3.03,-25.31 -7.99,-31.92 -11.02,-6.59 -25.3,-3.02 -31.91,8 -6.6,11.02 -3.03,25.3 7.99,31.91 11.02,6.61 25.3,3.03 31.91,-7.99"
             style="fill:#ffffff;fill-opacity:1;fill-rule:nonzero;stroke:none"
             id="path778"
             inkscape:connector-curvature="0" /><path
             d="m 3138.09,1314.09 c 5.5,-9.17 2.52,-21.07 -6.66,-26.56 -9.17,-5.51 -21.07,-2.52 -26.56,6.65 -5.5,9.18 -2.53,21.07 6.64,26.57 9.17,5.5 21.08,2.51 26.58,-6.66"
             style="fill:#ffffff;fill-opacity:1;fill-rule:nonzero;stroke:none"
             id="path780"
             inkscape:connector-curvature="0" /><path
             d="m 3375.6,1201.97 c 4.1,-6.83 1.87,-15.69 -4.95,-19.79 -6.84,-4.09 -15.7,-1.88 -19.81,4.96 -4.09,6.83 -1.87,15.7 4.95,19.79 6.85,4.1 15.72,1.89 19.81,-4.96"
             style="fill:#ffffff;fill-opacity:1;fill-rule:nonzero;stroke:none"
             id="path782"
             inkscape:connector-curvature="0" /><path
             d="m 3263.42,1155.49 c 3.5,-5.83 1.59,-13.4 -4.24,-16.9 -5.84,-3.49 -13.41,-1.61 -16.9,4.23 -3.5,5.84 -1.6,13.41 4.23,16.91 5.83,3.49 13.4,1.6 16.91,-4.24"
             style="fill:#ffffff;fill-opacity:1;fill-rule:nonzero;stroke:none"
             id="path784"
             inkscape:connector-curvature="0" /><path
             d="m 3324.31,1261.99 c 3.49,-5.83 1.6,-13.39 -4.23,-16.88 -5.83,-3.5 -13.41,-1.61 -16.9,4.23 -3.49,5.84 -1.6,13.39 4.23,16.89 5.84,3.5 13.4,1.61 16.9,-4.24"
             style="fill:#ffffff;fill-opacity:1;fill-rule:nonzero;stroke:none"
             id="path786"
             inkscape:connector-curvature="0" /><path
             d="m 3192.11,1439.77 c 3.5,-5.84 1.6,-13.39 -4.24,-16.9 -5.84,-3.5 -13.4,-1.6 -16.89,4.24 -3.5,5.83 -1.6,13.4 4.23,16.89 5.83,3.5 13.39,1.6 16.9,-4.23"
             style="fill:#ffffff;fill-opacity:1;fill-rule:nonzero;stroke:none"
             id="path788"
             inkscape:connector-curvature="0" /><path
             d="m 3218.34,1585.01 c 3.5,-5.82 1.6,-13.38 -4.23,-16.89 -5.84,-3.5 -13.4,-1.61 -16.9,4.23 -3.5,5.83 -1.6,13.41 4.23,16.9 5.84,3.5 13.4,1.6 16.9,-4.24"
             style="fill:#ffffff;fill-opacity:1;fill-rule:nonzero;stroke:none"
             id="path790"
             inkscape:connector-curvature="0" /><path
             d="m 3144.73,1479.29 c 2.98,-4.98 1.36,-11.44 -3.62,-14.42 -4.98,-2.99 -11.44,-1.37 -14.43,3.61 -2.98,4.97 -1.36,11.43 3.61,14.42 4.98,2.99 11.45,1.36 14.44,-3.61"
             style="fill:#ffffff;fill-opacity:1;fill-rule:nonzero;stroke:none"
             id="path792"
             inkscape:connector-curvature="0" /><path
             d="m 3267.63,1541.09 c 4.36,-7.28 1.99,-16.73 -5.29,-21.1 -7.29,-4.37 -16.74,-2 -21.11,5.29 -4.36,7.28 -1.99,16.74 5.29,21.11 7.29,4.36 16.74,1.99 21.11,-5.3"
             style="fill:#ffffff;fill-opacity:1;fill-rule:nonzero;stroke:none"
             id="path794"
             inkscape:connector-curvature="0" /><path
             d="m 3086.19,1643.95 c 3.5,-5.84 1.61,-13.41 -4.23,-16.9 -5.83,-3.5 -13.4,-1.6 -16.89,4.23 -3.5,5.84 -1.61,13.41 4.23,16.9 5.83,3.5 13.41,1.61 16.89,-4.23"
             style="fill:#ffffff;fill-opacity:1;fill-rule:nonzero;stroke:none"
             id="path796"
             inkscape:connector-curvature="0" /><path
             d="m 3160.51,1519.66 c 3.5,-5.84 1.61,-13.4 -4.23,-16.9 -5.83,-3.49 -13.4,-1.61 -16.89,4.24 -3.5,5.82 -1.61,13.39 4.22,16.89 5.84,3.49 13.4,1.6 16.9,-4.23"
             style="fill:#ffffff;fill-opacity:1;fill-rule:nonzero;stroke:none"
             id="path798"
             inkscape:connector-curvature="0" /><path
             d="m 3151.18,1065.56 c 5.33,-8.85 2.44,-20.34 -6.42,-25.65 -8.85,-5.31 -20.34,-2.44 -25.66,6.42 -5.31,8.85 -2.42,20.35 6.44,25.65 8.86,5.31 20.34,2.44 25.64,-6.42"
             style="fill:#ffffff;fill-opacity:1;fill-rule:nonzero;stroke:none"
             id="path800"
             inkscape:connector-curvature="0" /><path
             d="m 3273.75,1342.09 c 7.61,-12.7 3.49,-29.14 -9.21,-36.76 -12.68,-7.61 -29.14,-3.48 -36.76,9.2 -7.59,12.71 -3.47,29.15 9.22,36.76 12.69,7.62 29.14,3.49 36.75,-9.2"
             style="fill:#ffffff;fill-opacity:1;fill-rule:nonzero;stroke:none"
             id="path802"
             inkscape:connector-curvature="0" /><path
             d="m 3047.09,1557.19 c 7.77,-12.95 3.56,-29.74 -9.39,-37.51 -12.95,-7.76 -29.74,-3.56 -37.51,9.4 -7.77,12.95 -3.56,29.74 9.39,37.51 12.94,7.76 29.75,3.56 37.51,-9.4"
             style="fill:#ffffff;fill-opacity:1;fill-rule:nonzero;stroke:none"
             id="path804"
             inkscape:connector-curvature="0" /><path
             d="m 3189.26,1676.06 c 7.76,-12.95 3.55,-29.75 -9.4,-37.51 -12.94,-7.76 -29.74,-3.56 -37.52,9.39 -7.75,12.95 -3.54,29.75 9.4,37.52 12.96,7.76 29.75,3.56 37.52,-9.4"
             style="fill:#ffffff;fill-opacity:1;fill-rule:nonzero;stroke:none"
             id="path806"
             inkscape:connector-curvature="0" /></g></g><path
         d="m 377.82054,145.7949 h -160.01 l -0.464,41.27 h 160.011 l 0.463,-41.27"
         style="fill:#ffffff;fill-opacity:1;fill-rule:nonzero;stroke:none;stroke-width:0.1"
         id="path808"
         inkscape:connector-curvature="0" /><path
         d="m 282.87254,150.3009 v 0.318 c 0.042,5.369 2.324,9.136 7.102,14.513 3.637,4.142 4.49,5.305 4.49,8.474 0,2.36 -0.5,4.016 -2.832,4.016 -2.432,0 -3.06,-1.991 -3.167,-5.147 h -5.519 c 0.048,4.956 2.168,9.715 8.855,9.715 6.089,0 8.524,-3.554 8.524,-8.783 0,-3.732 -0.934,-5.772 -4.987,-10.065 -2.932,-3.133 -5.169,-5.925 -5.858,-8.135 h 11.672 l -0.758,-4.906 h -17.522"
         style="fill:#3472c2;fill-opacity:1;fill-rule:nonzero;stroke:none;stroke-width:0.1"
         id="path810"
         inkscape:connector-curvature="0" /><path
         d="m 234.97354,157.5709 h 1.419 c 3.102,0 4.169,2.333 4.169,8.279 0,5.099 -0.949,7.343 -4.137,7.343 h -1.451 z m -4.005,18.923 h 5.774 c 5.703,0 7.917,-3.654 7.917,-10.628 0,-7.485 -2.122,-11.538 -8.223,-11.538 h -5.468 v 22.166"
         style="fill:#252b5e;fill-opacity:1;fill-rule:nonzero;stroke:none;stroke-width:0.1"
         id="path812"
         inkscape:connector-curvature="0" /><path
         d="m 254.74254,161.7639 c -0.396,0.066 -0.748,0.07 -1.265,0.07 -2.229,0 -3.039,-1.037 -3.039,-2.42 0,-1.031 0.496,-2.2 1.946,-2.2 1.998,0 2.358,1.493 2.358,4.009 z m 3.762,-3.743 c 0,-0.833 0.07,-2.929 0.132,-3.693 h -3.557 c -0.069,0.336 -0.164,1.088 -0.164,1.578 -0.646,-1.079 -1.76,-1.873 -3.823,-1.873 -3.261,0 -4.515,2.597 -4.515,5.027 0,3.473 2.383,5.576 6.686,5.576 0.571,0 1.006,0 1.39,-0.037 v 1.852 c 0,0.988 -0.126,2.146 -1.825,2.146 -1.626,0 -1.814,-1.07 -1.913,-2.184 h -3.712 c 0.066,2.495 1.238,5.163 5.774,5.163 3.64,0 5.527,-1.651 5.527,-4.888 v -8.667"
         style="fill:#252b5e;fill-opacity:1;fill-rule:nonzero;stroke:none;stroke-width:0.1"
         id="path814"
         inkscape:connector-curvature="0" /><path
         d="m 260.14154,171.2849 h 2.222 v 4.237 h 3.91 v -4.237 h 2.618 v -3.21 h -2.618 v -9.28 c 0,-0.985 0.179,-1.544 1.4,-1.544 0.393,0 0.641,0.003 0.964,0.069 v -2.877 c -0.718,-0.308 -1.781,-0.345 -2.392,-0.345 -2.711,0 -3.882,1.002 -3.882,4.049 v 9.928 h -2.222 v 3.21"
         style="fill:#252b5e;fill-opacity:1;fill-rule:nonzero;stroke:none;stroke-width:0.1"
         id="path816"
         inkscape:connector-curvature="0" /><path
         d="m 278.46454,161.7639 c -0.396,0.066 -0.748,0.07 -1.266,0.07 -2.228,0 -3.039,-1.037 -3.039,-2.42 0,-1.031 0.496,-2.2 1.947,-2.2 1.999,0 2.358,1.493 2.358,4.009 z m 3.762,-3.743 c 0,-0.833 0.07,-2.929 0.132,-3.693 h -3.557 c -0.069,0.336 -0.164,1.088 -0.164,1.578 -0.647,-1.079 -1.76,-1.873 -3.823,-1.873 -3.261,0 -4.515,2.597 -4.515,5.027 0,3.473 2.383,5.576 6.686,5.576 0.571,0 1.005,0 1.389,-0.037 v 1.852 c 0,0.988 -0.126,2.146 -1.824,2.146 -1.626,0 -1.814,-1.07 -1.913,-2.184 h -3.712 c 0.065,2.495 1.237,5.163 5.773,5.163 3.641,0 5.528,-1.651 5.528,-4.888 v -8.667"
         style="fill:#252b5e;fill-opacity:1;fill-rule:nonzero;stroke:none;stroke-width:0.1"
         id="path818"
         inkscape:connector-curvature="0" /><path
         d="m 306.23054,176.4939 v -22.166 h -3.976 v 22.166 h 3.976"
         style="fill:#252b5e;fill-opacity:1;fill-rule:nonzero;stroke:none;stroke-width:0.1"
         id="path820"
         inkscape:connector-curvature="0" /><path
         d="m 309.51854,166.0089 c 0,3.486 -0.004,4.387 -0.032,5.276 h 3.765 c 0.062,-0.422 0.123,-1.131 0.123,-1.765 0.503,0.935 1.542,2.085 3.745,2.085 2.768,0 4.342,-1.749 4.342,-5.182 v -12.095 h -3.918 v 11.207 c 0,1.683 -0.337,2.712 -1.914,2.712 -1.483,0 -2.193,-0.833 -2.193,-3.413 v -10.506 h -3.918 v 11.681"
         style="fill:#252b5e;fill-opacity:1;fill-rule:nonzero;stroke:none;stroke-width:0.1"
         id="path822"
         inkscape:connector-curvature="0" /><path
         d="m 324.91354,166.0089 c 0,3.486 -0.004,4.387 -0.032,5.276 h 3.766 c 0.061,-0.422 0.123,-1.131 0.123,-1.765 0.503,0.935 1.542,2.085 3.745,2.085 2.767,0 4.342,-1.749 4.342,-5.182 v -12.095 h -3.918 v 11.207 c 0,1.683 -0.337,2.712 -1.914,2.712 -1.484,0 -2.194,-0.833 -2.194,-3.413 v -10.506 h -3.918 v 11.681"
         style="fill:#252b5e;fill-opacity:1;fill-rule:nonzero;stroke:none;stroke-width:0.1"
         id="path824"
         inkscape:connector-curvature="0" /><path
         d="m 343.49454,162.8829 c 0,-3.639 0.61,-5.611 2.478,-5.611 1.761,0 2.362,1.951 2.362,5.562 0,3.751 -0.622,5.446 -2.391,5.446 -1.749,0 -2.449,-1.76 -2.449,-5.397 z m 8.79,0.067 c 0,-6.155 -2.258,-8.946 -6.423,-8.946 -4.103,0 -6.318,2.665 -6.318,8.855 0,6.006 2.526,8.717 6.524,8.717 4.062,0 6.217,-2.949 6.217,-8.626"
         style="fill:#252b5e;fill-opacity:1;fill-rule:nonzero;stroke:none;stroke-width:0.1"
         id="path826"
         inkscape:connector-curvature="0" /><path
         d="m 357.49954,171.2849 c 1.054,-4.814 2.188,-10.047 2.569,-12.881 h 0.033 c 0.307,2.608 1.73,8.01 2.76,12.881 h 3.917 l -4.75,-16.957 h -4.217 l -4.492,16.957 h 4.18"
         style="fill:#252b5e;fill-opacity:1;fill-rule:nonzero;stroke:none;stroke-width:0.1"
         id="path828"
         inkscape:connector-curvature="0" /></g></g></svg>